<?xml version="1.0" encoding="UTF-8"?><svg id="a" xmlns="http://www.w3.org/2000/svg" viewBox="0 0 37.11 9.79"><defs><style>.b{fill:#4d434f;}</style></defs><path class="b" d="M.61,8.63c-.13,.05-.24,.07-.33,.05-.09-.02-.17-.07-.22-.15-.05-.08-.07-.18-.05-.31L.58,1.32c0-.16,.05-.28,.13-.38,.07-.1,.17-.17,.29-.22,.12-.05,.24-.06,.36-.04,.12,.02,.24,.08,.36,.18L6.95,5.4c.1,.08,.16,.17,.19,.26,.03,.09,.01,.18-.04,.25-.05,.08-.14,.14-.27,.19-.14,.06-.27,.07-.38,.04-.11-.03-.22-.09-.34-.19l-1.38-1.23,.55,.04L.74,6.61l.37-.41-.13,1.84c0,.16-.04,.29-.09,.38-.05,.09-.14,.16-.27,.21ZM1.4,1.76l-.27,4.09-.34-.09,3.85-1.56-.17,.29L1.42,1.75h-.02Z"/><path class="b" d="M10.42,5.5c-.56,.1-1.06,.09-1.5-.04-.44-.13-.81-.36-1.1-.7s-.48-.76-.57-1.27c-.07-.38-.07-.73,0-1.06,.07-.32,.2-.62,.39-.87,.19-.26,.45-.47,.76-.64,.31-.17,.68-.3,1.1-.38,.26-.05,.55-.07,.85-.05,.31,.02,.6,.09,.88,.2,.09,.04,.16,.09,.19,.15,.04,.07,.05,.14,.04,.21,0,.08-.03,.14-.08,.2-.05,.06-.11,.1-.2,.12-.09,.02-.18,.02-.29-.02-.2-.09-.41-.13-.62-.15-.21-.02-.4,0-.58,.03-.28,.05-.52,.14-.72,.26-.2,.12-.36,.27-.48,.44-.12,.17-.2,.37-.23,.6-.04,.23-.03,.48,.03,.76,.1,.56,.33,.97,.69,1.23,.36,.26,.81,.34,1.36,.24,.18-.03,.36-.09,.55-.18,.18-.09,.36-.2,.53-.36,.09-.07,.17-.11,.26-.11s.16,.01,.23,.05c.07,.04,.11,.09,.14,.16,.03,.07,.04,.14,.02,.21-.01,.08-.06,.15-.13,.21-.21,.2-.45,.37-.72,.49-.27,.13-.54,.21-.8,.26Z"/><path class="b" d="M15,5.06c-.45,0-.83-.06-1.13-.2-.3-.14-.53-.36-.68-.64-.15-.28-.23-.64-.23-1.08l-.04-2.62c0-.15,.04-.27,.13-.35,.09-.08,.21-.12,.38-.12,.17,0,.3,.03,.39,.11,.09,.08,.14,.19,.14,.34l.04,2.62c0,.41,.11,.72,.3,.91,.19,.19,.5,.29,.91,.28,.46,0,.83-.15,1.11-.41,.28-.27,.42-.63,.41-1.07l-.03-2.37c0-.15,.04-.27,.13-.35S17.04,0,17.2,0c.17,0,.3,.03,.39,.11,.09,.08,.14,.19,.14,.34l.06,4.08c0,.31-.16,.47-.5,.48-.17,0-.3-.04-.39-.11-.09-.08-.13-.19-.14-.35v-.87l.14,.17c-.15,.39-.39,.69-.73,.9-.34,.21-.73,.32-1.19,.32Z"/><path class="b" d="M20.93,5.41c-.38-.06-.71-.18-.99-.36-.29-.18-.5-.39-.63-.64-.13-.25-.18-.51-.14-.79,.06-.36,.2-.62,.44-.79,.24-.17,.6-.27,1.1-.28,.5-.01,1.15,.04,1.97,.17l.53,.08-.09,.57-.51-.08c-.58-.09-1.04-.14-1.39-.15-.34,0-.59,.04-.74,.13-.15,.09-.25,.24-.28,.45-.04,.26,.03,.48,.21,.68,.18,.2,.45,.32,.82,.38,.29,.04,.55,.02,.79-.06,.24-.09,.44-.22,.6-.41,.16-.19,.26-.42,.3-.69l.18-1.14c.06-.39,.01-.68-.14-.89s-.44-.34-.88-.4c-.25-.04-.51-.05-.78-.03-.27,.02-.56,.07-.87,.15-.12,.03-.22,.03-.3,0-.08-.03-.14-.08-.18-.15-.04-.07-.06-.14-.05-.22,0-.08,.04-.15,.09-.21,.05-.07,.13-.11,.25-.12,.35-.09,.7-.15,1.04-.16,.34-.01,.65,0,.94,.05,.49,.08,.88,.21,1.18,.39,.3,.18,.5,.43,.62,.73,.11,.31,.14,.67,.07,1.11l-.41,2.61c-.02,.15-.08,.26-.18,.33-.09,.07-.22,.09-.38,.06-.15-.02-.26-.08-.34-.17-.07-.09-.1-.22-.08-.37l.11-.7h.1c-.1,.25-.24,.44-.44,.59-.19,.15-.42,.26-.68,.31s-.55,.06-.85,.01Z"/><path class="b" d="M25.44,6.33c-.17-.05-.29-.13-.35-.23s-.08-.23-.03-.37l1.15-3.92c.04-.15,.12-.24,.23-.29,.11-.05,.24-.05,.39,0,.16,.04,.26,.12,.33,.21,.06,.1,.07,.22,.03,.37l-.22,.74-.11-.03c.23-.35,.53-.58,.92-.68,.38-.1,.82-.1,1.32,.02,.12,.03,.21,.08,.26,.16,.06,.08,.07,.18,.04,.31-.03,.12-.09,.21-.18,.26-.1,.05-.22,.06-.38,.03l-.2-.05c-.5-.1-.91-.07-1.24,.08-.33,.15-.55,.43-.67,.84l-.66,2.25c-.04,.15-.12,.25-.23,.3s-.24,.05-.4,0Z"/><path class="b" d="M31.42,1.92c-.19-.07-.33-.18-.4-.31-.08-.13-.09-.27-.03-.42,.06-.16,.16-.26,.31-.3,.14-.04,.31-.02,.5,.05,.21,.08,.34,.18,.42,.31,.07,.12,.08,.27,.01,.43-.06,.15-.15,.25-.29,.3-.14,.05-.31,.04-.52-.04Zm-2.18,5.64c-.15-.06-.25-.14-.31-.26-.05-.11-.05-.24,0-.39l1.44-3.72c.06-.15,.15-.25,.26-.29,.12-.04,.25-.04,.4,.02,.16,.06,.26,.15,.32,.26,.06,.11,.05,.24,0,.39l-1.44,3.72c-.06,.14-.14,.24-.25,.29s-.25,.04-.42-.02Z"/><path class="b" d="M33.22,9.4c-.49-.25-.87-.56-1.13-.93-.27-.37-.41-.77-.43-1.21-.02-.44,.08-.89,.32-1.34,.18-.34,.39-.62,.65-.84,.25-.22,.54-.37,.85-.46,.31-.09,.64-.11,.99-.06,.35,.05,.71,.17,1.07,.36,.49,.25,.87,.56,1.13,.93,.27,.37,.41,.77,.43,1.21s-.08,.88-.32,1.34c-.18,.34-.39,.63-.65,.85-.26,.22-.54,.38-.85,.46-.31,.09-.64,.11-.99,.06-.35-.05-.71-.17-1.07-.36Zm.33-.64c.3,.15,.59,.23,.87,.22,.29-.01,.55-.1,.79-.28,.24-.18,.45-.44,.63-.79,.27-.52,.34-.99,.22-1.4-.12-.41-.41-.73-.86-.96-.29-.15-.58-.22-.86-.21s-.55,.1-.79,.27c-.24,.17-.46,.44-.64,.78-.27,.52-.34,.99-.21,1.4,.13,.41,.41,.73,.85,.96Z"/></svg>