<?xml version="1.0" encoding="UTF-8"?><svg id="a" xmlns="http://www.w3.org/2000/svg" viewBox="0 0 28.64 12.26"><defs><style>.b{fill:#4d434f;}</style></defs><path class="b" d="M.19,6.75C.12,6.5-.01,6.25,0,6,.09,4.06,1.07,2.22,3.47,1.86c.7-.11,1.34,.03,1.84,.51,.44,.43,.81,.95,1.19,1.45,.17,.23,.26,.51,.43,.74,.67,.88,1.89,.86,2.44-.09,.33-.56,.53-1.2,.75-1.81,.34-.93,.94-1.63,1.87-2.01,1.76-.73,2.91-.26,3.61,1.3,.2,.44,.39,.89,.64,1.31,.19,.31,.43,.62,.7,.86,.59,.51,1.11,.4,1.44-.31,.26-.57,.43-1.18,.65-1.76,.53-1.42,2.1-2.27,3.6-1.95,.58,.12,.97,.49,1.21,1,.27,.56,.53,1.14,.77,1.72,.19,.45,.42,.86,.84,1.16,.15,.11,.18,.37,.27,.57-.22,.09-.44,.26-.66,.25-.57-.01-.96-.36-1.21-.84-.29-.56-.53-1.14-.79-1.71-.22-.48-.27-1.1-1.03-1.08-.7,.02-1.66,.36-1.89,1.1-.15,.49-.34,.97-.52,1.45-.08,.21-.15,.43-.25,.63-.66,1.31-2.03,1.58-3.15,.64-.68-.57-1.07-1.33-1.42-2.12-.1-.23-.18-.48-.3-.71-.42-.82-.96-1.02-1.85-.71-.85,.3-1.36,.89-1.66,1.72-.23,.64-.47,1.29-.82,1.87-.64,1.07-1.95,1.42-3.09,.91-.61-.27-.96-.78-1.29-1.33-.3-.51-.66-1-1.03-1.46-.29-.36-.72-.47-1.17-.38-1.01,.19-1.87,.62-2.29,1.61-.23,.55-.39,1.13-.58,1.69-.08,.26-.03,.59-.53,.7Z"/><path class="b" d="M28.64,9.21c-.19,.67-.6,.89-1.13,.88-.75-.02-1.49-.09-2.24-.17-.62-.07-1.03-.47-1.37-.95-.59-.81-1.11-.91-1.94-.3-.44,.32-.81,.73-1.21,1.09-.36,.33-.7,.67-1.09,.97-.86,.66-1.96,.62-2.75-.15-.51-.5-.95-1.07-1.38-1.63-.81-1.05-2.06-1.04-2.83,.06-.21,.3-.35,.65-.53,.97-.69,1.19-1.63,2.06-3.07,2.23-1.16,.13-2.09-.26-2.69-1.3-.19-.32-.33-.67-.49-1-.32-.66-.79-.9-1.53-.78-1,.15-1.92,.45-2.48,1.35-.23,.38-.36,.82-.53,1.23-.07,.17-.11,.36-.18,.56-.47-.07-.52-.37-.53-.69-.03-1.35,.71-2.28,1.8-2.9,.63-.36,1.4-.53,2.12-.65,.95-.16,1.9,.42,2.34,1.28,.16,.31,.28,.63,.45,.92,.42,.73,1.07,.99,1.9,.79,.81-.19,1.37-.7,1.8-1.37,.17-.26,.31-.55,.44-.83,.55-1.14,1.52-1.69,2.72-1.84,.79-.1,1.47,.17,1.98,.81,.44,.56,.86,1.14,1.33,1.68,.58,.66,1.04,.71,1.71,.16,.62-.51,1.15-1.12,1.78-1.6,.44-.34,.97-.61,1.5-.79,.85-.29,1.63-.05,2.1,.73,.38,.61,.88,.82,1.55,.89,.8,.07,1.59,.22,2.45,.35Z"/></svg>