<?xml version="1.0" encoding="UTF-8"?><svg id="a" xmlns="http://www.w3.org/2000/svg" viewBox="0 0 15.7 15.9"><defs><style>.b{fill:#4d434f;}</style></defs><path class="b" d="M7.65,4.49c.49-1.07,.82-2.16,1.57-3.05C10.46-.04,12.52-.44,14.01,.52c1.51,.97,2.11,3.01,1.37,4.68-.19,.43-.39,.92-1,.78-.61-.15-.57-.64-.49-1.13,.08-.51,.23-1.03,.16-1.53-.12-.92-.76-1.46-1.64-1.68-.94-.23-1.64,.23-2.15,.95-1.04,1.46-1.18,3.2-1.32,4.9-.19,2.27-.26,4.55-.41,6.82-.04,.63,.18,1.59-.78,1.59-1.08,0-.81-1.02-.84-1.69-.19-3.76-.2-6.06-.78-8.81-.18-.85-.46-1.71-.83-2.5-.38-.81-1.08-1.28-2.04-1.06-.92,.21-1.46,.84-1.53,1.75-.06,.66,.05,1.34,.1,2.01,.03,.42,.14,.89-.4,1.03-.47,.12-.77-.19-1.01-.57C-.58,4.47,.28,1.64,2.08,.61c1.67-.95,3.6-.33,4.66,1.49,.42,.73,.59,1.54,.9,2.38Z"/></svg>