<?xml version="1.0" encoding="UTF-8"?><svg id="a" xmlns="http://www.w3.org/2000/svg" viewBox="0 0 25.46 9.94"><defs><style>.b{fill:#4d434f;}</style></defs><path class="b" d="M.59,9.9c-.13,.04-.24,.05-.33,.03-.09-.03-.16-.08-.21-.16-.04-.08-.06-.19-.03-.32L1,2.59c.02-.15,.07-.28,.15-.37,.08-.09,.18-.16,.31-.2,.12-.04,.24-.05,.36-.02,.12,.03,.23,.09,.35,.2L7.11,7.05c.09,.09,.15,.18,.17,.27,.02,.1,0,.18-.05,.25-.06,.07-.15,.13-.28,.17-.14,.05-.27,.06-.38,.02-.11-.04-.22-.11-.33-.21l-1.3-1.31,.54,.07L.84,7.88l.39-.38-.24,1.83c-.02,.16-.06,.28-.12,.37-.06,.09-.15,.15-.29,.2ZM1.79,3.08l-.51,4.07-.33-.11,3.93-1.33-.18,.28L1.81,3.07h-.02Z"/><path class="b" d="M8.81,7.55c-.17,.03-.31,0-.41-.06s-.16-.17-.19-.33l-.59-4.04c-.02-.15,0-.27,.09-.36s.2-.15,.36-.17c.16-.02,.29,0,.39,.06,.1,.06,.16,.17,.18,.32l.11,.76-.11,.02c.06-.41,.24-.75,.55-1,.3-.25,.7-.43,1.21-.53,.12-.02,.22-.01,.31,.03,.08,.04,.14,.13,.17,.26,.03,.12,0,.23-.06,.32-.06,.09-.18,.15-.33,.18l-.2,.04c-.49,.12-.86,.32-1.09,.6-.23,.28-.32,.62-.26,1.04l.34,2.31c.02,.15,0,.27-.08,.36s-.2,.15-.36,.17Z"/><path class="b" d="M12.78,7.1c-.16,0-.29-.03-.38-.11-.1-.08-.15-.2-.16-.35l-.2-3.98c0-.16,.03-.28,.12-.37,.09-.09,.21-.14,.37-.14,.17,0,.3,.03,.39,.11,.1,.08,.15,.2,.16,.36l.2,3.98c0,.15-.03,.28-.11,.37-.08,.09-.21,.14-.39,.15Zm-.31-6.04c-.21,.01-.37-.03-.49-.12-.12-.09-.19-.21-.2-.38,0-.17,.04-.31,.16-.4,.11-.1,.27-.15,.48-.16,.22-.01,.39,.02,.5,.11,.11,.08,.18,.21,.19,.39,0,.16-.04,.29-.15,.39-.11,.1-.27,.16-.49,.17Z"/><path class="b" d="M17.33,7.19c-.6-.04-1.11-.17-1.53-.41-.42-.23-.73-.54-.94-.93-.21-.39-.3-.84-.27-1.36,.03-.51,.18-.94,.43-1.31,.26-.37,.6-.64,1.02-.83,.42-.19,.89-.26,1.42-.23,.37,.02,.71,.1,1,.23s.54,.3,.74,.52c.2,.22,.35,.48,.44,.79,.09,.3,.13,.64,.1,1.01,0,.11-.05,.19-.12,.24-.08,.05-.18,.07-.32,.06l-3.91-.25,.04-.58,3.65,.23-.2,.13c.02-.35-.02-.64-.12-.89-.1-.25-.26-.45-.48-.59-.22-.14-.49-.22-.83-.24-.37-.02-.68,.03-.95,.16-.27,.13-.48,.33-.64,.59-.16,.26-.24,.57-.27,.92v.06c-.04,.6,.09,1.06,.4,1.39,.31,.33,.77,.51,1.39,.55,.24,.02,.5,0,.75-.03,.26-.04,.51-.12,.76-.24,.12-.05,.23-.07,.32-.06,.1,0,.17,.04,.23,.09s.09,.12,.1,.19,0,.15-.05,.22c-.04,.08-.12,.14-.23,.2-.26,.14-.57,.24-.92,.3-.35,.06-.69,.08-1.01,.06Z"/><path class="b" d="M22.48,7.93c-.34-.07-.67-.18-.99-.32-.33-.14-.62-.33-.88-.56-.07-.06-.12-.13-.14-.21s-.02-.15,0-.21c.03-.07,.07-.12,.13-.16,.06-.04,.14-.06,.22-.05,.08,0,.16,.04,.24,.11,.26,.21,.52,.37,.78,.49,.26,.12,.53,.2,.79,.26,.41,.09,.74,.09,.97,0,.24-.08,.38-.24,.42-.45,.04-.18,0-.34-.12-.47-.12-.13-.32-.25-.6-.37l-1-.41c-.44-.19-.76-.42-.95-.68-.19-.26-.25-.56-.18-.89,.06-.29,.21-.53,.44-.71,.23-.18,.52-.29,.88-.34,.35-.05,.74-.03,1.17,.07,.33,.07,.63,.17,.91,.31,.28,.14,.52,.31,.73,.51,.08,.06,.13,.13,.14,.21,.01,.07,0,.14-.03,.21-.03,.06-.08,.11-.14,.15-.06,.03-.13,.05-.22,.04-.08,0-.17-.04-.26-.11-.19-.18-.39-.32-.61-.42s-.44-.18-.66-.23c-.4-.09-.72-.08-.96,.01-.23,.09-.38,.25-.42,.47-.04,.17,0,.32,.09,.46,.1,.14,.28,.26,.54,.37l1,.41c.47,.2,.8,.42,1.01,.67,.21,.25,.27,.55,.2,.89-.09,.44-.37,.75-.82,.92-.45,.17-1.02,.19-1.69,.04Z"/></svg>