<?xml version="1.0" encoding="UTF-8"?><svg id="a" xmlns="http://www.w3.org/2000/svg" viewBox="0 0 55.3 16.48"><defs><style>.b{fill:#4d434f;}</style></defs><path class="b" d="M6.37,15.23c-.58,.55-1.18,.92-1.8,1.11-.62,.18-1.23,.19-1.82,0-.6-.18-1.15-.54-1.67-1.07-.38-.4-.66-.82-.84-1.26C.06,13.57-.02,13.12,0,12.67c.02-.46,.14-.91,.37-1.36,.23-.45,.56-.88,1-1.3,.33-.32,.69-.58,1.07-.79,.39-.21,.76-.35,1.12-.41,.14-.03,.26-.03,.35,.01,.09,.04,.16,.1,.2,.18,.04,.08,.05,.16,.04,.25-.01,.09-.06,.18-.13,.25-.07,.08-.18,.13-.32,.16-.32,.05-.62,.16-.91,.32-.29,.16-.56,.36-.82,.61-.42,.41-.71,.83-.86,1.27-.15,.44-.15,.88-.02,1.32,.13,.44,.4,.88,.81,1.31,.4,.42,.83,.71,1.27,.87,.44,.16,.88,.17,1.33,.05,.45-.13,.88-.39,1.31-.8,.26-.25,.48-.52,.65-.8,.18-.29,.3-.59,.37-.91,.04-.14,.1-.24,.18-.31s.16-.11,.25-.12c.08-.01,.17,0,.24,.05,.08,.04,.13,.1,.17,.19,.04,.08,.04,.19,0,.31-.06,.39-.21,.77-.45,1.15-.23,.38-.52,.74-.86,1.06Z"/><path class="b" d="M10.5,12.04c-.32,.2-.65,.33-.98,.38-.33,.05-.63,.03-.9-.07-.27-.1-.47-.27-.62-.51-.19-.3-.26-.6-.19-.88,.06-.28,.28-.6,.65-.93,.37-.34,.9-.72,1.6-1.16l.46-.29,.31,.49-.44,.27c-.5,.31-.88,.58-1.14,.8-.26,.22-.42,.42-.48,.59-.05,.17-.03,.35,.08,.52,.14,.22,.34,.35,.61,.37,.27,.03,.55-.05,.86-.25,.25-.15,.43-.34,.55-.57,.12-.22,.18-.46,.18-.7,0-.25-.08-.48-.22-.72l-.61-.97c-.21-.33-.44-.52-.69-.58-.25-.05-.56,.04-.93,.27-.21,.13-.42,.3-.61,.49-.19,.19-.38,.42-.56,.68-.07,.1-.15,.17-.23,.2-.08,.03-.16,.03-.23,0-.08-.03-.14-.07-.18-.14-.04-.06-.07-.14-.07-.22,0-.09,.03-.17,.1-.26,.21-.3,.43-.57,.68-.8,.25-.23,.49-.42,.74-.58,.42-.27,.8-.43,1.15-.48,.34-.06,.66,0,.95,.15,.29,.15,.55,.42,.78,.79l1.41,2.23c.08,.13,.11,.25,.08,.36-.03,.11-.11,.21-.25,.3-.13,.08-.25,.11-.37,.09-.12-.02-.22-.1-.3-.23l-.38-.6,.09-.05c.08,.24,.1,.48,.05,.72-.05,.24-.15,.47-.31,.68-.16,.21-.37,.4-.64,.57Z"/><path class="b" d="M15.04,11.48c-.15,.06-.28,.07-.4,.02-.11-.04-.2-.13-.25-.27l-2.12-5.49c-.06-.14-.05-.27,0-.37,.06-.1,.16-.19,.31-.24,.16-.06,.29-.07,.4-.03,.11,.04,.19,.13,.25,.27l.33,.85-.18-.12c-.02-.39,.1-.75,.36-1.08,.26-.34,.62-.59,1.09-.78,.46-.18,.9-.24,1.32-.18,.41,.06,.79,.22,1.12,.5s.59,.66,.77,1.14c.19,.48,.25,.93,.2,1.36-.05,.43-.21,.81-.49,1.13-.27,.32-.64,.57-1.1,.75-.46,.18-.9,.23-1.32,.15-.41-.07-.74-.26-.99-.55l.12-.05,.91,2.35c.05,.14,.05,.26,0,.37-.06,.11-.16,.19-.32,.25Zm1.12-3.11c.31-.12,.55-.29,.73-.51,.18-.22,.29-.48,.32-.78s-.02-.63-.16-1c-.21-.55-.51-.91-.9-1.09-.39-.18-.82-.18-1.29,0-.31,.12-.56,.29-.74,.51-.18,.22-.29,.47-.32,.77-.03,.3,.03,.63,.17,1,.21,.55,.51,.91,.9,1.09,.39,.18,.82,.18,1.29,0Z"/><path class="b" d="M20.51,7.76c-.17,.04-.31,.02-.42-.03-.11-.06-.18-.16-.21-.31l-.84-3.99c-.03-.15-.01-.27,.06-.37,.07-.09,.19-.16,.35-.19,.16-.03,.29-.02,.39,.04,.1,.06,.17,.16,.2,.31l.16,.75-.11,.02c.04-.42,.2-.76,.48-1.03,.29-.27,.68-.47,1.17-.61,.12-.03,.22-.03,.31,.01,.09,.04,.15,.12,.18,.25,.03,.12,.02,.23-.04,.32-.06,.09-.17,.16-.32,.21l-.2,.05c-.48,.15-.83,.37-1.05,.66s-.28,.64-.19,1.05l.48,2.29c.03,.15,.01,.27-.06,.37-.07,.1-.19,.16-.35,.2Z"/><path class="b" d="M23.77,1.06c-.21,.02-.37,0-.5-.09-.13-.08-.2-.2-.22-.36-.02-.17,.02-.31,.13-.41,.11-.1,.26-.17,.47-.19,.22-.03,.39,0,.51,.08,.12,.08,.19,.2,.21,.37,.02,.16-.02,.29-.12,.4-.1,.11-.26,.17-.48,.2Zm.66,6.01c-.16,.02-.29-.01-.39-.09-.1-.08-.16-.19-.18-.34l-.44-3.97c-.02-.16,.02-.28,.1-.38,.08-.09,.2-.15,.36-.17,.17-.02,.3,0,.4,.08,.1,.07,.16,.19,.18,.35l.44,3.97c.02,.15-.01,.28-.09,.37-.08,.1-.2,.15-.38,.17Z"/><path class="b" d="M28.81,6.91c-.57,0-1.05-.1-1.47-.31s-.73-.51-.95-.89c-.22-.38-.33-.83-.33-1.35,0-.39,.06-.73,.19-1.04,.12-.31,.31-.57,.54-.78,.24-.22,.53-.38,.87-.5,.34-.11,.72-.17,1.15-.17,.27,0,.55,.04,.85,.11,.3,.07,.57,.19,.83,.36,.08,.05,.14,.11,.16,.19,.02,.07,.02,.14,0,.21-.02,.07-.06,.13-.11,.18s-.13,.08-.22,.08c-.09,0-.18-.02-.28-.07-.18-.12-.38-.21-.58-.26-.2-.05-.4-.08-.58-.08-.28,0-.53,.04-.75,.12-.22,.08-.4,.2-.55,.35-.15,.15-.26,.33-.34,.55-.08,.22-.11,.47-.11,.75,0,.57,.15,1.01,.46,1.34,.31,.32,.74,.49,1.3,.49,.18,0,.37-.03,.57-.08,.2-.05,.39-.14,.58-.26,.1-.05,.19-.08,.28-.07s.15,.04,.21,.09c.06,.05,.09,.11,.11,.18,.02,.07,0,.14-.02,.22-.03,.07-.08,.13-.17,.18-.24,.16-.51,.28-.8,.35-.29,.07-.57,.11-.84,.11Z"/><path class="b" d="M33.7,7.32c-.54-.08-1-.26-1.37-.52-.37-.27-.63-.6-.8-1.01-.16-.41-.2-.87-.13-1.38,.06-.38,.17-.72,.34-1,.17-.29,.39-.52,.66-.7,.27-.18,.57-.31,.92-.37,.35-.07,.72-.07,1.13,0,.54,.08,1,.26,1.37,.52,.37,.27,.64,.6,.8,1.01,.16,.41,.21,.86,.13,1.37-.06,.38-.17,.72-.34,1.01s-.39,.53-.66,.71-.57,.31-.92,.37c-.35,.07-.72,.07-1.13,0Zm.11-.71c.33,.05,.63,.02,.9-.08s.49-.27,.66-.52,.29-.56,.35-.95c.09-.58,0-1.04-.24-1.39-.25-.35-.62-.56-1.12-.63-.33-.05-.62-.02-.89,.07-.27,.1-.49,.27-.66,.51-.18,.24-.29,.56-.35,.95-.09,.58,0,1.05,.25,1.4,.25,.35,.62,.56,1.11,.64Z"/><path class="b" d="M37.97,8.19c-.17-.05-.29-.12-.35-.23s-.08-.23-.04-.37l1.13-3.92c.04-.15,.12-.25,.23-.29,.11-.05,.24-.05,.4,0,.15,.05,.26,.12,.32,.22,.06,.1,.07,.22,.03,.37l-.21,.74-.11-.03c.23-.35,.53-.58,.91-.68,.38-.1,.82-.1,1.32,.02,.12,.03,.21,.08,.27,.15,.06,.08,.07,.18,.04,.31-.03,.12-.09,.21-.18,.26-.09,.05-.22,.06-.38,.03l-.2-.05c-.5-.09-.91-.06-1.24,.09-.33,.16-.55,.44-.67,.84l-.65,2.25c-.04,.15-.12,.25-.22,.3-.11,.05-.24,.06-.4,0Z"/><path class="b" d="M41.7,9.36c-.15-.06-.25-.15-.3-.26-.05-.11-.05-.23,.01-.38l1.61-3.75c.06-.14,.15-.23,.26-.26,.11-.03,.25-.02,.39,.04,.15,.06,.25,.15,.3,.25,.05,.11,.04,.23-.02,.37l-.32,.75-.06-.19c.3-.28,.65-.44,1.06-.48,.41-.03,.83,.04,1.26,.23,.41,.18,.73,.39,.94,.63,.21,.24,.33,.53,.35,.85,.02,.32-.06,.68-.23,1.09l-1.04,2.41c-.06,.14-.15,.23-.26,.27-.11,.04-.25,.02-.4-.04-.15-.07-.26-.15-.31-.27s-.05-.23,.01-.38l1.02-2.36c.17-.4,.21-.73,.11-.99-.1-.26-.34-.47-.72-.64-.45-.19-.86-.23-1.24-.1-.37,.12-.65,.39-.83,.8l-.93,2.17c-.12,.29-.35,.36-.67,.22Z"/><path class="b" d="M50.41,6.79c-.18-.1-.3-.22-.35-.37-.06-.14-.04-.28,.03-.42,.08-.15,.2-.24,.35-.26,.15-.02,.31,.02,.49,.12,.19,.11,.32,.23,.37,.36,.05,.13,.04,.27-.05,.43-.08,.14-.19,.22-.33,.25-.14,.03-.31,0-.51-.12Zm-2.96,5.28c-.14-.08-.23-.18-.27-.3-.04-.12-.02-.25,.06-.38l1.95-3.48c.08-.14,.18-.22,.3-.25,.12-.03,.25,0,.39,.08,.15,.08,.24,.18,.28,.3,.04,.12,.02,.25-.06,.39l-1.95,3.48c-.07,.13-.17,.22-.29,.25-.12,.03-.25,0-.41-.08Z"/><path class="b" d="M51.13,14.43c-.45-.32-.78-.68-1-1.08-.21-.4-.3-.82-.26-1.26s.2-.87,.5-1.29c.22-.31,.47-.57,.75-.75,.28-.18,.58-.29,.9-.34,.32-.04,.65-.02,.99,.08,.34,.1,.68,.26,1.02,.5,.45,.32,.78,.67,1,1.08,.21,.4,.3,.82,.27,1.26-.03,.44-.2,.86-.49,1.28-.22,.32-.47,.57-.76,.75-.28,.18-.58,.3-.9,.34-.32,.05-.65,.02-.99-.08-.34-.1-.68-.26-1.02-.5Zm.41-.59c.28,.19,.56,.3,.84,.33,.28,.03,.56-.03,.82-.17,.26-.14,.51-.37,.73-.7,.34-.48,.47-.93,.4-1.35-.07-.42-.31-.78-.72-1.07-.27-.19-.54-.3-.83-.33-.28-.03-.56,.02-.82,.16-.27,.14-.51,.37-.74,.69-.34,.48-.47,.93-.4,1.36,.07,.43,.31,.78,.71,1.07Z"/></svg>