<?xml version="1.0" encoding="UTF-8"?><svg id="a" xmlns="http://www.w3.org/2000/svg" viewBox="0 0 17.5 19.53"><defs><style>.b{fill:#4d434f;}</style></defs><path class="b" d="M.84,5.4c-.2,.21-.43,.17-.65-.11-.07-.09-.12-.2-.13-.31C-.34,2.07,1.25-.52,4.61,.09c.77,.14,1.32,.65,1.7,1.33,.14,.24,.24,.51,.42,.89,.28-.79,.65-1.39,1.24-1.84,.82-.61,1.75-.59,2.49,.12,.87,.85,1.47,1.87,1.85,3.03,.49,1.5,.54,3.06,.66,4.62,.01,.13,.02,.27,.03,.48,.75-.49,1.49-.44,2.27-.27,.54,.12,.96,.37,1.27,.8,1.07,1.49,1.57,4.72-.25,6.57-.82,.83-1.78,1.31-2.97,1.31-.29,0-.6-.02-.66-.39-.05-.35,.21-.51,.48-.61,.18-.07,.39-.09,.59-.12,1.88-.31,2.91-1.91,2.81-3.8-.04-.67-.24-1.34-.47-1.98-.33-.88-1.34-1.33-2.25-1.11-.56,.13-.87,.56-.86,1.2,.02,.9,.07,1.81,.09,2.71,0,.31,0,.62-.07,.92-.21,1.06-.37,2.13-.68,3.16-.69,2.26-2.75,2.89-4.54,2.13-.71-.3-1.23-.84-1.39-1.62-.04-.18,.12-.39,.18-.59,.2,.07,.4,.13,.58,.23,.09,.05,.14,.18,.2,.27,.55,.85,1.37,1.09,2.31,.94,.92-.14,1.51-.78,1.71-1.61,.42-1.7,.87-3.38,.68-5.18-.2-1.97-.18-3.96-.32-5.94-.1-1.37-.48-2.68-1.3-3.82-.18-.25-.38-.5-.61-.71-.39-.36-.8-.36-1.25-.06-.57,.39-.87,.94-1.02,1.61-.28,1.27-.25,2.54-.14,3.81,.15,1.75,.33,3.5,.5,5.25,0,.06,.02,.11,.02,.17,.03,.49-.11,.79-.42,.8-.42,0-.51-.31-.54-.64-.12-1.27-.23-2.54-.35-3.81-.15-1.55-.3-3.1-.49-4.65-.06-.5-.22-1-.39-1.48-.33-.96-.99-1.41-2-1.43-1.21-.02-2.33,.69-2.73,1.83-.2,.56-.32,1.15-.38,1.74-.03,.32,.13,.67,.23,1.07Z"/></svg>