<?xml version="1.0" encoding="UTF-8"?><svg id="a" xmlns="http://www.w3.org/2000/svg" viewBox="0 0 36.11 10.24"><defs><style>.b{fill:#4d434f;}</style></defs><path class="b" d="M5.28,9.49c-.74,.31-1.43,.44-2.07,.38-.64-.05-1.21-.27-1.71-.65-.49-.38-.88-.92-1.17-1.6C.12,7.12,0,6.62,0,6.15c0-.48,.08-.93,.26-1.34,.18-.42,.46-.8,.84-1.13,.38-.34,.84-.62,1.4-.85,.42-.18,.85-.29,1.29-.35,.43-.06,.83-.05,1.19,.02,.14,.02,.25,.07,.32,.14,.07,.07,.11,.15,.12,.24,0,.09-.01,.17-.06,.25-.05,.08-.12,.14-.21,.19-.1,.04-.22,.06-.36,.04-.32-.06-.64-.07-.96-.03-.32,.04-.65,.14-.98,.27-.54,.23-.96,.52-1.26,.87-.29,.36-.46,.77-.5,1.22-.04,.46,.06,.96,.29,1.51,.23,.54,.52,.96,.87,1.27,.35,.3,.76,.48,1.22,.52,.46,.04,.96-.05,1.51-.27,.33-.14,.63-.31,.9-.51,.27-.21,.49-.44,.68-.72,.08-.12,.18-.19,.27-.22s.19-.04,.27-.02c.08,.02,.15,.06,.21,.13,.06,.07,.09,.15,.09,.24,0,.09-.03,.19-.1,.29-.2,.34-.48,.64-.83,.91-.35,.27-.75,.5-1.19,.68Z"/><path class="b" d="M10.5,7.96c-.38,.07-.73,.07-1.06,0-.33-.07-.6-.2-.81-.39-.21-.19-.34-.42-.4-.7-.07-.35-.02-.65,.14-.89,.16-.24,.48-.45,.94-.63,.46-.18,1.1-.35,1.91-.5l.53-.1,.11,.57-.51,.1c-.58,.11-1.03,.22-1.35,.33-.33,.11-.54,.24-.66,.38-.11,.14-.15,.31-.11,.51,.05,.26,.19,.45,.43,.57s.54,.15,.9,.08c.29-.05,.52-.16,.72-.33,.19-.16,.33-.36,.42-.59,.09-.23,.11-.48,.05-.75l-.22-1.13c-.07-.39-.22-.65-.43-.79-.21-.14-.53-.17-.96-.09-.25,.05-.5,.12-.75,.23-.25,.11-.51,.25-.77,.43-.1,.07-.2,.1-.28,.1-.09,0-.16-.03-.22-.08-.06-.05-.1-.12-.12-.19-.02-.07-.01-.15,.01-.23,.03-.08,.09-.15,.19-.2,.3-.21,.61-.37,.93-.5,.31-.13,.61-.21,.9-.27,.49-.09,.9-.1,1.24-.03,.34,.07,.62,.24,.83,.48,.21,.25,.36,.59,.44,1.02l.5,2.59c.03,.15,0,.27-.06,.37-.07,.1-.18,.16-.34,.19-.15,.03-.27,.01-.38-.05-.1-.06-.17-.17-.2-.32l-.13-.7,.1-.02c-.01,.25-.09,.48-.22,.69-.13,.21-.31,.38-.54,.52-.23,.14-.49,.24-.8,.3Zm-.15-5.73c-.05,.08-.11,.14-.18,.17-.08,.03-.15,.03-.24,.01-.08-.02-.14-.06-.19-.12-.04-.06-.05-.14-.02-.23l.62-1.74c.03-.11,.09-.2,.18-.24,.08-.05,.17-.07,.27-.07,.1,0,.19,.02,.26,.07,.08,.04,.13,.1,.16,.18,.03,.08,.02,.17-.03,.26l-.84,1.71Z"/><path class="b" d="M14.96,7.28c-.16,0-.29-.04-.38-.11-.09-.08-.14-.19-.14-.35l-.04-4.08c0-.15,.04-.27,.13-.35s.22-.12,.38-.12,.28,.03,.37,.11c.09,.08,.13,.19,.14,.34v.82l-.12-.15c.16-.38,.42-.67,.78-.87,.36-.2,.77-.3,1.24-.3,.45,0,.82,.06,1.11,.2,.29,.14,.51,.35,.66,.63,.15,.29,.23,.65,.23,1.09l.03,2.62c0,.15-.04,.27-.13,.35-.09,.08-.21,.12-.38,.12-.17,0-.3-.04-.39-.12s-.14-.2-.14-.35l-.03-2.57c0-.43-.1-.75-.3-.95-.19-.2-.5-.3-.92-.29-.49,0-.88,.14-1.17,.41-.29,.27-.44,.62-.43,1.07l.03,2.36c0,.31-.17,.47-.52,.47Z"/><path class="b" d="M23.07,7.75c-.56-.08-1.03-.26-1.41-.52-.38-.27-.65-.61-.81-1.02-.16-.41-.21-.88-.13-1.39,.06-.38,.17-.72,.34-1,.17-.28,.39-.52,.65-.7s.57-.3,.93-.37c.35-.06,.74-.06,1.16,0,.26,.04,.54,.12,.82,.23,.28,.11,.54,.27,.76,.48,.07,.06,.12,.13,.13,.21,.01,.07,0,.14-.03,.21-.03,.07-.08,.13-.14,.17-.06,.04-.14,.06-.23,.05-.09,0-.18-.04-.27-.11-.16-.14-.34-.26-.53-.34-.19-.08-.38-.14-.56-.16-.28-.04-.53-.04-.76,0-.23,.05-.43,.14-.59,.26-.17,.13-.31,.29-.41,.5-.11,.2-.18,.45-.22,.73-.08,.56,0,1.02,.26,1.39,.26,.36,.66,.59,1.21,.67,.18,.03,.37,.03,.58,0,.2-.02,.41-.08,.61-.17,.11-.04,.2-.05,.28-.03,.08,.02,.15,.06,.2,.12,.05,.06,.08,.12,.08,.19s-.01,.14-.05,.21c-.04,.07-.1,.12-.19,.15-.27,.12-.55,.2-.84,.23-.3,.03-.58,.03-.84-.01Z"/><path class="b" d="M28.07,8.91c-.58-.17-1.05-.41-1.4-.73-.36-.32-.6-.69-.72-1.12s-.11-.89,.04-1.38c.14-.49,.38-.88,.71-1.18,.33-.3,.72-.49,1.17-.58,.45-.09,.93-.06,1.44,.09,.36,.11,.67,.25,.93,.44,.26,.19,.46,.42,.61,.67,.15,.26,.23,.55,.26,.86s-.02,.65-.12,1.01c-.03,.1-.09,.17-.17,.2-.09,.03-.19,.03-.33,0l-3.76-1.1,.16-.56,3.51,1.03-.23,.08c.1-.33,.12-.63,.08-.9s-.16-.49-.34-.68c-.18-.18-.43-.33-.75-.42-.35-.1-.67-.12-.97-.05-.29,.07-.54,.22-.75,.44-.21,.22-.36,.5-.46,.84l-.02,.06c-.17,.58-.14,1.06,.09,1.44,.23,.39,.64,.67,1.23,.84,.23,.07,.48,.11,.74,.13,.26,.02,.52,0,.79-.07,.13-.02,.24-.02,.33,0,.09,.03,.16,.08,.2,.14,.04,.06,.06,.13,.06,.2,0,.07-.04,.14-.1,.21-.06,.07-.15,.11-.27,.14-.29,.08-.61,.11-.96,.09-.36-.02-.69-.07-1-.16Z"/><path class="b" d="M31.7,10.18c-.16-.07-.27-.16-.32-.27-.05-.11-.05-.24,.01-.38l1.61-3.75c.06-.14,.15-.23,.26-.26,.11-.03,.25-.02,.39,.04,.15,.06,.25,.15,.3,.25,.05,.11,.05,.23-.02,.37l-.3,.71-.11-.05c.27-.32,.6-.51,.99-.56,.39-.06,.83,0,1.31,.18,.11,.04,.2,.1,.24,.19,.05,.08,.05,.19,0,.31-.04,.12-.11,.2-.22,.24-.1,.04-.23,.03-.38-.02l-.19-.07c-.48-.16-.89-.18-1.24-.07s-.6,.36-.76,.75l-.93,2.15c-.06,.14-.15,.23-.26,.27-.11,.04-.25,.02-.4-.04Z"/></svg>