<?xml version="1.0" encoding="UTF-8"?><svg id="a" xmlns="http://www.w3.org/2000/svg" viewBox="0 0 21.68 13.48"><defs><style>.b{fill:#4d434f;}</style></defs><path class="b" d="M2.03,3.12C5.02,.29,8.56-.39,12.42,.19c2.05,.31,3.78,1.39,5.28,2.79,1,.94,1.4,2.2,1.59,3.51,.16,1.07-.31,1.97-1.22,2.49-3.1,1.78-6.28,.38-7.29-2.46-.4-1.11,.08-2.04,.78-2.81,.55-.6,1.35-.59,2.09-.22,.06,.03,.09,.13,.18,.27-.17,.08-.31,.21-.48,.23-.91,.14-1.42,.68-1.58,1.55-.17,.92,.3,1.65,.95,2.19,1.2,1.01,3.05,1.08,4.37,.27,.62-.39,.9-.91,.7-1.66-.33-1.26-.91-2.33-2.05-3.06C11.83,.76,7.8,.68,3.65,2.55c-.47,.21-.92,.45-1.38,.68-.03,.01-.08-.03-.24-.1Z"/><path class="b" d="M21.67,10.14c.04,.83-.48,.97-.88,1.14-.82,.33-1.66,.68-2.52,.88-2.88,.66-5.79,1.22-8.77,1.22-1.17,0-2.34,.11-3.51,.1-1.67,0-3.11-.69-4.4-1.66C.19,10.77-.35,8.73,.23,7.01,1.53,3.14,6.19,1.89,9.24,4.6c1.61,1.43,1.34,3.51-.59,4.47-1.64,.81-3.53,.54-4.82-.73-.14-.14-.2-.36-.14-.79,.51,.17,1.01,.33,1.52,.51,.93,.33,1.84,.36,2.73-.1,1.05-.55,1.21-1.47,.34-2.25-.97-.86-2.1-1.52-3.46-1.07-1.57,.52-2.88,1.42-3.3,3.14-.32,1.33,.21,2.52,1.36,3.25,1.05,.67,2.18,1.08,3.45,1.07,4.76-.05,9.49-.26,14.06-1.76,.4-.13,.84-.13,1.29-.2Z"/></svg>