<?xml version="1.0" encoding="UTF-8"?><svg id="a" xmlns="http://www.w3.org/2000/svg" viewBox="0 0 23.12 12.63"><defs><style>.b{fill:#4d434f;}</style></defs><path class="b" d="M5.94,1.3c1.89-1.73,2.64-1.6,4.27,.62,.08-.05,.18-.09,.24-.16,.94-1.12,2.18-1.08,3.47-.83,.72,.14,1.22,.6,1.43,1.23,.28,.82,.53,1.68,.63,2.53,.2,1.87,.29,3.74,.43,5.62,.03,.44,.04,.88,.51,1.14,.55-.03,.79-.42,.97-.81,.28-.61,.53-1.24,.74-1.88,.33-.98,.61-1.98,.91-2.95-.04-.06-.05-.11-.08-.12-.36-.16-.89-.15-.93-.68-.04-.5,.33-.79,.72-1.03,.92-.55,1.85-1.09,2.77-1.64,.12-.07,.25-.14,.38-.17,.47-.12,.84,.18,.66,.59-.43,.94-.66,1.89-.68,2.91,0,.42-.33,.58-.75,.43-.23-.08-.43-.22-.79-.4-.4,1.19-.77,2.34-1.17,3.47-.25,.7-.51,1.39-.84,2.05-.18,.35-.46,.68-.77,.94-.97,.78-2.05,.55-2.58-.57-.18-.39-.27-.83-.3-1.26-.16-1.97-.28-3.95-.45-5.92-.05-.53-.17-1.06-.34-1.57-.28-.83-.84-1.11-1.91-1.01-.7,.06-1.36,.58-1.42,1.27-.06,.69-.09,1.43,.1,2.08,.57,1.95,.85,3.94,1,5.95,.02,.3,.03,.62-.06,.9-.06,.19-.31,.44-.48,.44-.23,0-.49-.18-.67-.35-.11-.1-.12-.31-.15-.47-.42-2-.97-3.98-.98-6.05,0-1.29-.45-2.51-.97-3.69-.13-.3-.39-.54-.57-.78-1.31,.29-1.9,1.05-1.66,2.19,.53,2.49,.45,5.01,.58,7.51,0,.13,.04,.3-.03,.39-.12,.17-.31,.41-.48,.42-.18,.01-.48-.18-.54-.35-.13-.37-.18-.78-.21-1.18-.17-2.17-.31-4.35-.48-6.52-.03-.43-.16-.85-.29-1.27-.23-.76-.64-1.33-1.58-1.4-.94-.08-1.78,.06-2.29,.9-.28,.46-.47,.96-.71,1.44-.09,.19-.2,.36-.34,.61C-.35,2.82,.26,1.14,1.39,.42,2.14-.06,2.97-.02,3.83,.03c.94,.05,1.56,.53,2.11,1.27Z"/></svg>