<?xml version="1.0" encoding="UTF-8"?><svg id="a" xmlns="http://www.w3.org/2000/svg" viewBox="0 0 41.06 11.14"><defs><style>.b{fill:#4d434f;}</style></defs><path class="b" d="M5.73,10.24c-.76,.4-1.48,.61-2.14,.64s-1.26-.13-1.79-.47c-.53-.33-.96-.83-1.31-1.49-.26-.5-.42-.98-.47-1.45-.05-.48,0-.93,.15-1.37,.15-.44,.41-.84,.76-1.22s.8-.7,1.34-.99c.42-.22,.85-.39,1.29-.5,.44-.11,.89-.14,1.33-.09,.11,.01,.19,.04,.25,.1,.06,.06,.1,.13,.12,.21s.01,.16-.02,.25c-.03,.08-.08,.15-.17,.21-.08,.05-.18,.08-.3,.07-.37-.03-.73,0-1.07,.08-.34,.08-.69,.22-1.05,.41-.53,.28-.94,.62-1.21,1s-.4,.81-.39,1.28c0,.47,.15,.96,.43,1.49,.43,.81,.97,1.31,1.62,1.5,.66,.19,1.42,.06,2.27-.39,.32-.17,.61-.36,.89-.57,.27-.21,.52-.44,.75-.68l.03,.55-1.12-2.13-1.38,.73c-.12,.06-.23,.08-.33,.06-.1-.02-.18-.08-.23-.18-.05-.1-.06-.19-.01-.29,.04-.09,.13-.17,.25-.23l1.8-.95c.12-.06,.23-.08,.34-.06,.1,.02,.18,.09,.24,.2l1.2,2.27c.05,.09,.07,.19,.07,.28,0,.09-.05,.17-.13,.25-.23,.25-.53,.51-.88,.78-.36,.27-.73,.51-1.11,.71Z"/><path class="b" d="M11.97,7.88c-.58,.16-1.11,.2-1.58,.12-.47-.08-.87-.27-1.2-.57-.33-.3-.56-.7-.69-1.19-.13-.49-.14-.95-.01-1.37,.12-.43,.35-.8,.69-1.11,.34-.31,.76-.54,1.27-.68,.36-.1,.7-.13,1.02-.11,.32,.03,.61,.11,.87,.25,.26,.14,.48,.34,.67,.6,.19,.26,.33,.56,.43,.93,.03,.1,.01,.19-.04,.26-.06,.07-.15,.13-.28,.17l-3.78,1.03-.15-.56,3.53-.97-.15,.19c-.09-.34-.23-.6-.41-.81-.18-.2-.39-.34-.64-.4-.25-.06-.54-.05-.86,.04-.35,.1-.64,.25-.85,.46-.21,.21-.35,.47-.41,.77-.06,.3-.05,.61,.05,.96l.02,.06c.16,.58,.44,.97,.83,1.18,.4,.21,.9,.23,1.49,.07,.24-.06,.47-.16,.7-.27s.45-.28,.64-.47c.1-.09,.19-.14,.28-.17,.09-.02,.18-.02,.25,.01,.07,.03,.12,.08,.16,.14,.03,.06,.04,.14,.03,.23-.02,.09-.07,.18-.15,.26-.2,.21-.46,.41-.77,.58-.31,.17-.62,.3-.93,.38Zm-1.28-5.52c-.04,.09-.1,.15-.17,.18-.07,.03-.15,.04-.24,.03-.08-.01-.15-.05-.2-.11s-.06-.13-.04-.23l.49-1.78c.02-.12,.08-.2,.16-.26s.17-.08,.27-.09c.1,0,.19,0,.27,.04,.08,.04,.14,.09,.17,.17,.03,.08,.03,.17,0,.27l-.7,1.77Z"/><path class="b" d="M15.51,6.96c-.16,0-.29-.03-.38-.1-.09-.08-.15-.19-.15-.34l-.16-4.08c0-.15,.03-.27,.12-.35,.09-.08,.21-.12,.37-.13,.16,0,.29,.03,.38,.1,.09,.07,.14,.19,.15,.34l.03,.85-.13-.17c.13-.37,.35-.66,.67-.88,.32-.21,.7-.33,1.15-.35,.47-.02,.86,.06,1.16,.25,.3,.19,.5,.47,.62,.87h-.16c.12-.36,.36-.66,.7-.89,.35-.23,.76-.35,1.23-.37,.42-.02,.77,.04,1.05,.17,.28,.13,.49,.34,.64,.61,.15,.28,.23,.64,.25,1.08l.11,2.62c0,.15-.04,.27-.12,.36-.09,.08-.21,.13-.37,.13-.17,0-.3-.03-.39-.1-.1-.08-.15-.19-.15-.34l-.1-2.58c-.02-.43-.11-.74-.29-.93-.18-.19-.46-.28-.86-.27-.44,.02-.78,.16-1.02,.44-.24,.27-.36,.64-.34,1.1l.09,2.34c0,.15-.03,.27-.12,.36-.08,.08-.21,.13-.38,.14s-.3-.03-.39-.1c-.1-.08-.15-.19-.15-.34l-.1-2.58c-.02-.43-.11-.74-.29-.93-.18-.19-.46-.28-.86-.27-.43,.02-.78,.16-1.02,.44-.25,.27-.36,.64-.34,1.1l.09,2.34c.01,.31-.16,.48-.51,.49Z"/><path class="b" d="M25.06,7.06c-.16-.02-.28-.08-.36-.18-.08-.1-.11-.22-.09-.37l.51-3.96c.02-.16,.08-.27,.18-.35,.1-.07,.23-.1,.39-.08,.17,.02,.29,.08,.37,.17,.08,.09,.11,.22,.09,.38l-.51,3.96c-.02,.15-.08,.26-.18,.34s-.23,.1-.41,.08Zm.77-6c-.2-.03-.36-.09-.46-.2-.11-.11-.15-.25-.13-.41,.02-.17,.1-.29,.23-.37,.13-.08,.3-.1,.5-.07,.22,.03,.38,.09,.48,.2,.1,.1,.14,.24,.12,.41-.02,.16-.09,.28-.21,.36-.12,.08-.29,.11-.51,.08Z"/><path class="b" d="M27.51,7.43c-.16-.04-.27-.11-.34-.21-.07-.1-.09-.22-.05-.37l.98-3.96c.04-.15,.11-.25,.22-.3,.11-.05,.24-.06,.39-.02,.16,.04,.27,.11,.33,.2,.07,.1,.08,.22,.05,.37l-.2,.8-.09-.18c.25-.33,.57-.55,.97-.64,.4-.1,.83-.1,1.28,.02,.44,.11,.78,.26,1.03,.47s.41,.47,.48,.78c.07,.31,.05,.68-.05,1.11l-.63,2.54c-.04,.15-.11,.25-.21,.31-.1,.06-.24,.07-.4,.02-.16-.04-.28-.11-.35-.21-.07-.1-.09-.22-.05-.37l.62-2.49c.1-.42,.09-.75-.05-.99s-.41-.41-.82-.51c-.47-.12-.89-.08-1.24,.1-.35,.19-.58,.49-.68,.93l-.57,2.29c-.08,.3-.28,.41-.62,.33Z"/><path class="b" d="M33.61,9.18c-.15-.06-.25-.14-.31-.25-.05-.11-.06-.24,0-.39l1.38-3.74c.06-.15,.14-.25,.26-.29,.11-.04,.25-.04,.4,.01,.16,.06,.26,.14,.32,.25,.06,.11,.06,.24,0,.39l-1.38,3.74c-.05,.14-.14,.24-.25,.29-.11,.05-.25,.05-.42-.01Zm2.1-5.67c-.19-.07-.33-.17-.41-.3-.08-.13-.09-.27-.03-.42,.06-.16,.16-.26,.3-.31,.14-.04,.31-.03,.5,.04,.21,.08,.35,.18,.42,.3,.07,.12,.08,.27,.02,.43-.06,.15-.15,.25-.29,.3s-.31,.04-.52-.04Z"/><path class="b" d="M37.24,10.77c-.31-.15-.61-.33-.89-.55s-.52-.47-.72-.76c-.06-.08-.08-.16-.08-.23,0-.08,.02-.15,.06-.2,.04-.06,.1-.1,.17-.12,.07-.02,.15-.03,.22,0s.15,.08,.21,.16c.2,.26,.42,.48,.64,.66,.22,.18,.46,.32,.71,.44,.38,.18,.69,.26,.94,.23,.25-.03,.42-.14,.52-.34,.08-.17,.08-.33,0-.48-.08-.15-.25-.32-.49-.5l-.88-.64c-.39-.29-.64-.59-.76-.88-.12-.3-.11-.6,.04-.91,.13-.27,.33-.46,.6-.58,.26-.12,.58-.16,.93-.12s.73,.15,1.12,.34c.3,.15,.57,.32,.81,.52,.24,.2,.43,.42,.59,.67,.06,.08,.09,.16,.08,.23,0,.07-.03,.14-.08,.19-.05,.06-.11,.09-.17,.11-.07,.02-.14,.01-.22-.01s-.15-.08-.22-.17c-.14-.22-.3-.4-.49-.55-.18-.15-.38-.28-.59-.38-.37-.18-.68-.25-.93-.22-.25,.04-.42,.15-.52,.36-.08,.16-.08,.31-.02,.47,.06,.16,.21,.32,.43,.49l.88,.63c.41,.3,.68,.6,.82,.89,.14,.29,.13,.59-.02,.91-.2,.41-.54,.64-1.02,.7-.48,.06-1.03-.06-1.65-.36Z"/></svg>