<?xml version="1.0" encoding="UTF-8"?><svg id="a" xmlns="http://www.w3.org/2000/svg" viewBox="0 0 17.89 17.08"><defs><style>.b{fill:#4d434f;}</style></defs><path class="b" d="M6.14,4.09c.32,1,.72,1.9,.87,2.84,.14,.92,.13,1.89,0,2.82-.13,.96-.47,1.9-.74,2.94,.68,.05,1.23,.09,1.77,.13,.58,.05,1.16,.11,1.82,.17-.29-1.07-.63-1.97-.75-2.9-.12-.98-.14-2,0-2.98,.13-.9,.55-1.75,.85-2.66-.72-.08-1.41-.17-2.11-.24-.5-.05-1-.08-1.72-.13ZM16.38,1.89c.1,.76-.39,.97-.87,1.14-.91,.32-1.81,.67-2.74,.9-.66,.17-1.04,.52-1.33,1.1-.71,1.41-.96,2.89-.61,4.4,.31,1.36,.8,2.68,1.11,3.69,1.74,.78,3.17,1.41,4.58,2.07,.4,.19,.8,.46,1.09,.79,.19,.22,.19,.61,.27,.93-.36,.06-.77,.25-1.07,.15-.62-.21-1.18-.57-1.76-.87-2.86-1.51-6-1.83-9.14-1.7-1.39,.06-2.76,.91-4.12,1.44-.5,.2-.97,.49-1.45,.74-.59-.7-.26-1.17,.21-1.49,.87-.6,1.77-1.19,2.72-1.66,.59-.29,.99-.63,1.16-1.27,.19-.73,.45-1.44,.68-2.16,.68-2.12,.11-4.08-.84-5.96-.2-.4-.72-.66-1.12-.93-.87-.59-1.79-1.11-2.63-1.74C.14,1.16-.27,.76,.23,0c.41,.2,.87,.37,1.27,.61,4.04,2.48,8.32,2.88,12.82,1.42,.65-.21,1.28-.7,2.06-.15Z"/></svg>