<?xml version="1.0" encoding="UTF-8"?><svg id="a" xmlns="http://www.w3.org/2000/svg" viewBox="0 0 17.9 7.6"><defs><style>.b{fill:#4d434f;}</style></defs><path class="b" d="M1.34,7.04c-.17,.02-.3,0-.41-.08-.11-.07-.17-.18-.18-.33L0,.54C-.01,.39,.02,.27,.1,.17,.18,.08,.31,.03,.47,0c.17-.02,.31,0,.41,.07,.1,.07,.16,.18,.18,.33l.71,5.78,3.62-.44c.16-.02,.28,0,.37,.06,.09,.06,.14,.15,.16,.27,.02,.13-.01,.24-.08,.32-.07,.08-.19,.13-.35,.15l-4.14,.51Z"/><path class="b" d="M9.09,6.75c-.6-.03-1.12-.16-1.54-.38-.42-.22-.74-.53-.96-.92-.22-.39-.31-.84-.29-1.35,.02-.51,.16-.94,.42-1.31,.25-.37,.58-.65,1-.84,.42-.19,.89-.28,1.42-.25,.37,.02,.71,.09,1.01,.21,.3,.13,.55,.3,.75,.51,.21,.22,.35,.48,.45,.78,.1,.3,.13,.64,.12,1.01,0,.11-.05,.19-.12,.24s-.18,.08-.32,.07l-3.92-.19,.03-.58,3.65,.18-.2,.13c.02-.35-.03-.64-.13-.89-.11-.25-.27-.44-.49-.58s-.5-.21-.83-.23c-.36-.02-.68,.04-.95,.18-.27,.14-.47,.34-.63,.6-.15,.26-.23,.57-.25,.92v.06c-.03,.6,.11,1.06,.42,1.38,.31,.32,.78,.5,1.4,.53,.24,.01,.5,0,.75-.04,.26-.04,.51-.13,.75-.25,.12-.05,.22-.08,.32-.07,.1,0,.17,.04,.23,.09,.06,.05,.09,.11,.11,.19,.01,.07,0,.14-.05,.22-.04,.08-.12,.14-.23,.2-.26,.14-.57,.25-.92,.31-.35,.07-.69,.09-1.01,.08Z"/><path class="b" d="M14.65,7.51c-.54-.12-.98-.32-1.33-.61-.35-.29-.6-.64-.73-1.06-.14-.42-.15-.88-.04-1.38,.08-.38,.22-.7,.41-.98s.42-.5,.7-.66c.28-.16,.59-.27,.94-.31,.35-.04,.73-.02,1.13,.07,.54,.12,.98,.32,1.33,.61,.35,.29,.6,.64,.73,1.05,.14,.41,.15,.87,.04,1.38-.08,.38-.22,.71-.41,.99-.19,.28-.42,.5-.7,.67s-.59,.27-.94,.31c-.35,.04-.73,.02-1.13-.06Zm.15-.7c.33,.07,.63,.07,.9-.02,.27-.08,.5-.24,.69-.48,.19-.23,.32-.54,.4-.93,.13-.57,.07-1.04-.15-1.4-.23-.36-.59-.6-1.08-.7-.32-.07-.62-.06-.89,.02-.27,.08-.5,.24-.69,.47-.19,.23-.33,.54-.41,.93-.12,.57-.07,1.04,.16,1.41,.23,.37,.59,.6,1.07,.71Z"/></svg>