<?xml version="1.0" encoding="UTF-8"?><svg id="a" xmlns="http://www.w3.org/2000/svg" viewBox="0 0 20.39 16.65"><defs><style>.b{fill:#4d434f;stroke:#4d434f;stroke-miterlimit:10;stroke-width:.25px;}</style></defs><path class="b" d="M7.69,10.87c-.03-.27-.08-.54-.08-.81-.01-.52-.23-.95-.57-1.33-1.14-1.29-3.21-1.45-4.51-.33-1.81,1.56-2.15,4.15-.22,6.22,1.4,1.51,4.53,1.4,5.86-.14,.4-.47,.79-.98,1.06-1.53,.74-1.51,1.08-3.13,.99-4.82-.07-1.37-.15-2.74-.22-4.11-.05-.95,.09-1.86,.63-2.68C11.22,.46,12.05,.04,13.11,.14c.98,.09,1.61,.68,2,1.55,.48,1.08,.55,2.21,.39,3.36-.3,2.18-.18,4.35,.12,6.51,.1,.69,.28,1.37,.5,2.03,.26,.77,.99,1.03,1.7,.62,.81-.47,1.26-1.2,1.48-2.1,.06-.26,.2-.52,.35-.74,.06-.09,.3-.14,.41-.1,.11,.05,.2,.24,.21,.37,.05,1.3-1.02,2.96-2.24,3.5-1.06,.47-2.28,.02-2.75-1.04-.49-1.11-.68-2.29-.79-3.47-.17-1.83-.24-3.67,.01-5.51,.1-.71,.07-1.45,.02-2.17-.03-.38-.17-.76-.34-1.1-.49-.96-1.67-1.12-2.44-.36-.5,.5-.76,1.12-.75,1.82,.01,1.16,.03,2.33,.12,3.49,.16,1.92-.03,3.77-.69,5.58-.42,1.14-1.06,2.14-1.94,2.98-.95,.91-2.08,1.37-3.43,1.1-.64-.13-1.3-.2-1.92-.4-.44-.14-.9-.35-1.22-.66C-.99,12.68-.08,8.79,2.76,7.12c1.46-.85,4.27-.16,5.16,1.37,.48,.83,.48,1.63-.23,2.37Z"/></svg>