<?xml version="1.0" encoding="UTF-8"?><svg id="a" xmlns="http://www.w3.org/2000/svg" viewBox="0 0 27.79 12.21"><defs><style>.b{fill:#4d434f;}</style></defs><path class="b" d="M18.66,6.28l9.1,.03c.19,1.13-.47,1.2-1.09,1.22-1.03,.03-2.07-.04-3.1,0-1.6,.06-3.19,.18-4.78,.27-.21,.01-.41,.06-.62,.06-1.05-.01-1.43-.38-1.24-1.41,.25-1.34-.12-2.53-.69-3.7-.54-1.13-1.48-1.68-2.73-1.68-1.42,0-2.76,.4-3.98,1.1-1.35,.77-1.77,2.85-.95,4.38,.21,.4,.47,.77,.84,1.36-1.71,.51-3.29,.05-4.82,.18-1.52,.13-3.05,.19-4.6,.11,.97-.9,2.22-.87,3.39-.98,1.23-.12,2.47-.08,3.85-.11-.06-.42-.12-.8-.17-1.17-.4-2.73,.63-4.45,3.26-5.32,.78-.26,1.59-.45,2.4-.56,2.2-.31,3.89,.54,4.8,2.55,.52,1.15,.76,2.42,1.13,3.67Z"/><path class="b" d="M2.14,11.59c7.53-1.08,15.12-1.16,22.7-1.35,.31,0,.62,.21,.97,.33-.26,.82-.84,.84-1.4,.86-2.01,.06-4.02,.1-6.03,.18-4.22,.18-8.44,.38-12.66,.58-1.22,.06-2.42,.05-3.58-.6Z"/></svg>