<?xml version="1.0" encoding="UTF-8"?><svg id="a" xmlns="http://www.w3.org/2000/svg" viewBox="0 0 29.24 9.69"><defs><style>.b{fill:#4d434f;}</style></defs><path class="b" d="M2.91,9.64c-.16,.06-.29,.07-.41,.02-.12-.04-.2-.14-.26-.28L.04,3.62c-.05-.14-.05-.27,0-.38,.06-.11,.17-.19,.33-.25l2.55-.98c.81-.31,1.51-.38,2.08-.2,.57,.18,.98,.58,1.22,1.21,.24,.63,.21,1.21-.09,1.73s-.87,.93-1.68,1.24l-2.05,.79,.85,2.21c.05,.14,.06,.27,0,.38-.05,.11-.16,.2-.33,.26Zm-.79-3.55l1.93-.74c.56-.21,.93-.49,1.13-.81,.2-.33,.21-.71,.05-1.13-.16-.42-.43-.69-.79-.79s-.82-.05-1.38,.16l-1.93,.74,.99,2.58Z"/><path class="b" d="M9.42,7.5c-.16,.04-.29,.02-.4-.04-.11-.07-.18-.17-.21-.32l-.87-3.89c-.04-.16-.02-.28,.05-.39,.07-.1,.19-.17,.34-.2,.17-.04,.3-.02,.41,.04,.11,.06,.18,.17,.21,.33l.88,3.89c.03,.15,.02,.28-.05,.38-.07,.1-.19,.17-.36,.21Zm-1.32-5.9c-.2,.04-.37,.03-.51-.03-.14-.07-.22-.18-.26-.34-.04-.17,0-.31,.09-.42,.1-.11,.24-.19,.45-.24,.22-.05,.39-.04,.52,.02,.13,.06,.21,.18,.25,.35,.03,.16,0,.29-.08,.41-.09,.12-.24,.2-.45,.25Z"/><path class="b" d="M13.31,6.9c-.34,.04-.69,.04-1.04,0-.35-.03-.69-.12-1.01-.26-.09-.04-.15-.09-.2-.16-.04-.06-.06-.13-.06-.21,0-.07,.03-.13,.08-.19,.05-.06,.11-.1,.19-.11,.08-.02,.17,0,.26,.03,.31,.11,.61,.19,.89,.22,.28,.03,.56,.03,.84,0,.42-.04,.73-.14,.92-.3,.2-.15,.29-.34,.26-.56-.02-.19-.1-.32-.25-.41-.15-.09-.38-.14-.68-.17l-1.08-.08c-.48-.04-.85-.16-1.11-.35-.26-.19-.41-.46-.45-.79-.03-.3,.03-.57,.2-.81,.16-.24,.41-.44,.73-.59,.32-.15,.7-.25,1.13-.3,.33-.04,.66-.03,.96,.01,.31,.04,.59,.13,.85,.26,.1,.04,.16,.09,.19,.16,.03,.07,.04,.14,.03,.21s-.04,.13-.09,.18c-.05,.05-.11,.09-.2,.11-.08,.02-.18,0-.28-.03-.24-.11-.47-.18-.71-.21-.24-.03-.47-.04-.7-.01-.41,.04-.71,.14-.91,.31-.19,.16-.28,.35-.26,.58,.02,.17,.1,.31,.23,.41,.14,.1,.35,.16,.62,.19l1.08,.08c.5,.04,.89,.15,1.16,.33,.27,.18,.43,.44,.46,.78,.05,.45-.12,.83-.5,1.13-.38,.3-.91,.49-1.6,.56Z"/><path class="b" d="M19.05,6.77c-.56-.02-1.05-.15-1.45-.38-.4-.23-.71-.54-.92-.93-.21-.39-.3-.85-.28-1.37,.02-.39,.09-.73,.23-1.03,.14-.3,.33-.55,.58-.76,.25-.21,.54-.36,.88-.46,.34-.1,.73-.14,1.16-.12,.27,.01,.55,.06,.84,.14,.29,.09,.56,.22,.81,.39,.08,.06,.13,.12,.15,.19,.02,.07,.02,.14,0,.21-.02,.07-.06,.13-.12,.18-.06,.05-.13,.07-.22,.08-.09,0-.18-.02-.28-.08-.18-.13-.37-.22-.57-.28-.2-.06-.39-.1-.58-.1-.28-.01-.53,.02-.75,.09-.22,.07-.41,.18-.56,.32-.16,.14-.28,.32-.36,.54-.08,.21-.13,.46-.15,.75-.02,.56,.11,1.02,.4,1.35,.29,.34,.72,.51,1.27,.54,.18,0,.38,0,.58-.05,.2-.04,.4-.12,.59-.23,.1-.05,.19-.07,.28-.05s.15,.05,.21,.1c.05,.05,.09,.11,.1,.18,.01,.07,0,.14-.03,.21-.03,.07-.09,.13-.17,.17-.25,.15-.52,.25-.82,.32-.29,.06-.57,.09-.84,.08Z"/><path class="b" d="M23.11,1.06c-.2-.03-.36-.1-.46-.21-.1-.11-.14-.25-.12-.41,.02-.17,.1-.29,.23-.37,.13-.07,.3-.09,.5-.06,.22,.03,.38,.1,.48,.2,.1,.1,.13,.24,.11,.42-.02,.16-.1,.28-.22,.36-.12,.08-.29,.11-.51,.07Zm-.86,5.99c-.16-.02-.28-.08-.36-.18s-.11-.22-.08-.38l.57-3.95c.02-.16,.08-.27,.19-.34,.1-.07,.23-.09,.39-.07,.17,.02,.29,.08,.37,.18,.08,.1,.11,.22,.08,.38l-.57,3.95c-.02,.15-.08,.26-.18,.34-.1,.07-.24,.1-.41,.07Z"/><path class="b" d="M26.13,7.85c-.33-.08-.66-.2-.98-.35-.32-.15-.61-.35-.86-.59-.07-.06-.11-.14-.13-.21-.02-.08-.01-.15,.02-.21,.03-.07,.07-.12,.14-.16,.06-.04,.14-.05,.22-.04,.08,0,.16,.05,.24,.12,.25,.21,.51,.38,.76,.51,.26,.12,.52,.22,.78,.29,.41,.1,.73,.11,.97,.04,.24-.08,.39-.22,.44-.44,.04-.18,.01-.34-.1-.47s-.31-.26-.58-.39l-.99-.44c-.44-.21-.75-.44-.93-.71-.18-.27-.23-.57-.15-.9,.07-.29,.23-.52,.46-.69,.24-.17,.53-.28,.89-.31,.36-.04,.75,0,1.17,.11,.33,.08,.63,.19,.9,.34,.27,.15,.51,.33,.71,.53,.08,.07,.12,.14,.13,.21s0,.14-.04,.21c-.04,.06-.08,.11-.15,.14-.06,.03-.14,.04-.22,.03s-.17-.05-.25-.12c-.18-.18-.38-.33-.59-.44-.21-.11-.43-.2-.65-.25-.4-.1-.72-.11-.96-.02-.24,.08-.38,.24-.44,.46-.04,.17-.02,.32,.08,.46,.09,.14,.27,.27,.52,.39l.99,.44c.46,.21,.79,.44,.98,.7,.2,.26,.25,.56,.17,.89-.11,.44-.4,.74-.86,.9-.46,.16-1.03,.15-1.69-.01Z"/></svg>