<?xml version="1.0" encoding="UTF-8"?><svg id="a" xmlns="http://www.w3.org/2000/svg" viewBox="0 0 17.12 15.03"><defs><style>.b{fill:#4d434f;}</style></defs><path class="b" d="M11.53,7.55c.31,3.51,2.73,5.07,5.41,6.48-.1,.52-.48,.64-.96,.5-2.71-.81-4.94-2.17-5.72-5.11-.15-.56-.27-1.13-.41-1.75-1,.06-1.95,.12-2.81,.18-.41,1.22-.74,2.37-1.18,3.48-.47,1.16-1.09,2.24-2.04,3.09-.73,.66-1.43,.79-2.12,.4-.17-.09-.32-.3-.36-.48-.02-.11,.18-.35,.31-.38,.78-.16,1.13-.79,1.52-1.35,1.05-1.49,1.72-3.17,1.86-4.6-.95-.01-1.9-.02-2.85-.05-.48-.01-.96-.04-1.43-.13-.25-.05-.49-.22-.74-.35,.27-.7,.81-.64,1.25-.68,.95-.09,1.91-.11,2.87-.17,.29-.02,.58-.06,.94-.09-.03-1.23-.34-2.34-1.11-3.27-.51-.62-1.13-1.16-1.73-1.7-.31-.28-.69-.53-.42-.99,.3-.51,.78-.35,1.17-.13,1.42,.8,2.55,1.89,3.17,3.42,.33,.81,.52,1.67,.79,2.57l2.78-.19c.03-.33,.05-.61,.09-.9,.22-1.87,1.03-3.49,2.16-4.97,.09-.12,.18-.27,.3-.31,.22-.06,.5-.1,.69-.02,.1,.04,.16,.41,.1,.56-.23,.57-.53,1.13-.8,1.68-.58,1.15-.99,2.35-.92,3.73,1.94,.24,3.84-.68,5.78-.16-.05,.76-.54,.96-1.05,1.06-.94,.18-1.89,.31-2.84,.44-.54,.08-1.09,.12-1.71,.19Z"/></svg>