<?xml version="1.0" encoding="UTF-8"?><svg id="a" xmlns="http://www.w3.org/2000/svg" viewBox="0 0 26.15 15.65"><defs><style>.b{fill:#4d434f;}</style></defs><path class="b" d="M5.72,12.4c-1.93,1.06-3.63,2.34-5.72,3.25,.06-.67,.48-.82,.79-1.03,1.34-.89,2.7-1.75,4.05-2.62,.18-.12,.37-.24,.65-.43l-1.21-3.16c.31-.29,.54-.17,.69,.04,.32,.46,.62,.94,.91,1.43,.2,.35,.35,.72,.55,1.13,.34-.17,.62-.31,.89-.46,3.64-2.02,7.27-4.04,11.15-5.63,2.04-.83,3.98-1.92,5.96-2.89,.13-.07,.27-.13,.51-.24-1.3-.69-2.48-.94-3.72-.96-.76-.01-1.52,.03-2.28,0-.47-.01-.93-.1-1.4-.16-.06-.58,.39-.56,.69-.59,.75-.07,1.52-.12,2.27-.1,1.43,.04,2.85,.13,4.15,.81,.52,.27,1.02,.59,1.5,.87-.36,1.63-2.81,6.58-3.59,7.21-.06-.18-.18-.38-.13-.48,.37-.71,.56-1.49,1.02-2.18,.7-1.05,1.17-2.26,1.77-3.45-1.66,.32-16.71,7.75-18.45,9.09,.2,.51,.4,1.04,.6,1.57,.08,.21,.18,.41,.23,.62,.07,.31,.09,.65-.28,.81-.42,.17-.68-.09-.82-.42-.27-.63-.48-1.29-.76-2.05Z"/></svg>