<?xml version="1.0" encoding="UTF-8"?><svg id="a" xmlns="http://www.w3.org/2000/svg" viewBox="0 0 45.06 13.41"><defs><style>.b{fill:#4d434f;}</style></defs><path class="b" d="M5.57,12.41c-.3,.2-.6,.37-.91,.52-.31,.15-.61,.26-.91,.34-.3,.08-.59,.13-.87,.14-.12,0-.22-.01-.3-.06-.08-.05-.14-.11-.17-.19-.03-.08-.04-.16-.01-.25,.02-.09,.06-.16,.13-.22,.07-.06,.17-.1,.29-.1,.41-.02,.8-.11,1.17-.24,.37-.14,.75-.34,1.14-.6,.56-.37,.91-.74,1.05-1.09,.14-.35,.12-.68-.07-.96-.16-.24-.38-.36-.66-.37-.28,0-.67,.1-1.18,.33l-1.13,.49c-.67,.29-1.24,.41-1.71,.35s-.84-.3-1.13-.72c-.17-.26-.27-.54-.3-.83-.02-.29,.03-.59,.14-.9,.12-.3,.3-.6,.54-.88,.25-.28,.55-.55,.92-.8,.39-.26,.8-.46,1.2-.6,.41-.14,.82-.21,1.22-.21,.11,0,.2,.02,.27,.08,.07,.05,.12,.12,.15,.19s.03,.16,0,.24c-.02,.08-.07,.15-.15,.21-.08,.06-.18,.09-.31,.1-.36,.02-.69,.08-1.01,.19-.31,.11-.63,.27-.95,.48-.32,.22-.58,.45-.75,.7-.18,.25-.28,.5-.31,.74-.02,.25,.03,.47,.18,.68,.17,.25,.39,.39,.67,.42s.65-.06,1.12-.27l1.12-.5c.71-.31,1.3-.45,1.77-.41,.47,.04,.84,.25,1.11,.66,.17,.26,.27,.52,.28,.81,.02,.28-.03,.57-.14,.86-.12,.29-.31,.58-.56,.87s-.58,.56-.97,.82Z"/><path class="b" d="M10.56,9.69c-.35,.15-.7,.22-1.04,.21-.34,0-.63-.08-.87-.22-.25-.14-.42-.34-.53-.6-.14-.33-.15-.64-.04-.9,.11-.27,.38-.54,.79-.81,.42-.27,1.01-.56,1.77-.88l.5-.2,.22,.54-.48,.2c-.54,.22-.96,.42-1.26,.6-.3,.17-.49,.34-.57,.5s-.08,.34,0,.53c.1,.24,.28,.4,.54,.47,.26,.07,.56,.04,.89-.1,.27-.11,.48-.27,.64-.46,.16-.2,.26-.42,.3-.66,.04-.24,0-.49-.1-.75l-.44-1.06c-.15-.36-.34-.59-.58-.68s-.56-.06-.96,.11c-.23,.1-.46,.22-.69,.38-.22,.16-.45,.35-.67,.58-.09,.09-.17,.14-.26,.16-.08,.02-.16,0-.23-.04-.07-.04-.12-.09-.15-.16-.03-.07-.04-.14-.03-.23,.01-.08,.06-.16,.15-.23,.25-.26,.52-.49,.81-.67,.28-.19,.56-.33,.83-.44,.46-.19,.86-.28,1.21-.28,.35,0,.65,.11,.91,.31s.47,.5,.64,.91l1.01,2.44c.06,.14,.06,.27,.02,.37-.05,.11-.14,.19-.29,.25-.14,.06-.27,.07-.38,.03s-.2-.13-.26-.27l-.27-.66,.09-.04c.04,.25,.01,.49-.07,.72s-.23,.44-.42,.62c-.19,.18-.43,.34-.72,.46Z"/><path class="b" d="M17.12,9.51c-.4,.08-.8,.12-1.2,.12-.39,0-.76-.05-1.1-.15-.11-.03-.18-.08-.23-.14-.05-.06-.07-.13-.07-.21s.03-.15,.07-.21c.05-.07,.11-.12,.18-.15,.08-.03,.16-.03,.25,0,.36,.1,.7,.14,1.01,.14,.31,0,.6-.03,.87-.09,.53-.11,.91-.31,1.12-.6,.22-.29,.28-.67,.18-1.13l-.22-1.06,.1-.02c-.03,.39-.2,.73-.52,1.02-.32,.29-.72,.48-1.2,.58-.49,.1-.95,.09-1.35-.03-.41-.12-.75-.34-1.02-.66-.27-.31-.46-.71-.56-1.18-.07-.36-.08-.7-.03-1.01,.06-.31,.17-.6,.34-.85,.17-.25,.39-.46,.67-.64,.28-.18,.6-.3,.98-.38,.49-.1,.93-.08,1.33,.06,.4,.14,.7,.38,.88,.73l-.1,.16-.18-.86c-.03-.15,0-.27,.06-.37,.08-.09,.19-.16,.36-.19,.16-.03,.29-.02,.39,.04,.1,.06,.17,.16,.2,.31l.82,4.02c.15,.74,.05,1.34-.3,1.8-.35,.46-.94,.78-1.77,.94Zm-.66-2.65c.34-.07,.61-.2,.83-.38,.22-.18,.36-.42,.44-.69,.08-.28,.08-.59,.02-.93-.11-.52-.34-.89-.69-1.13-.35-.24-.78-.3-1.28-.2-.34,.07-.61,.2-.83,.38-.22,.18-.36,.41-.45,.69-.08,.28-.09,.59-.02,.93,.11,.51,.34,.88,.69,1.12,.36,.24,.79,.31,1.29,.21Z"/><path class="b" d="M20.78,1.06c-.21,.01-.37-.02-.5-.11-.13-.09-.19-.21-.2-.37-.01-.17,.04-.31,.15-.41,.11-.1,.27-.15,.48-.17,.22-.02,.39,.02,.51,.1,.12,.08,.18,.21,.19,.38,.01,.16-.04,.29-.14,.4-.1,.1-.27,.16-.49,.18Zm.42,6.04c-.16,.01-.29-.02-.39-.1-.1-.08-.15-.2-.16-.35l-.28-3.98c-.01-.16,.03-.28,.11-.37,.08-.09,.21-.14,.37-.15,.17-.01,.3,.02,.4,.1,.1,.08,.15,.19,.16,.35l.28,3.98c.01,.15-.02,.27-.11,.37-.08,.09-.21,.14-.39,.16Z"/><path class="b" d="M25.55,7.08c-.45,0-.82-.09-1.12-.23-.3-.15-.52-.36-.66-.62-.14-.27-.21-.6-.2-.99l.06-2.46-.73-.02c-.14,0-.24-.04-.32-.1-.07-.06-.11-.15-.11-.26,0-.11,.04-.2,.12-.26,.08-.06,.19-.09,.32-.08l.73,.02,.02-1.09c0-.15,.05-.27,.15-.34,.09-.08,.22-.11,.39-.11,.17,0,.3,.04,.38,.12,.09,.08,.13,.19,.12,.35l-.02,1.09,1.39,.03c.15,0,.26,.04,.33,.1,.07,.06,.11,.15,.11,.26,0,.11-.04,.19-.12,.25-.08,.06-.19,.09-.33,.09l-1.39-.03-.06,2.38c0,.37,.07,.65,.25,.84s.46,.29,.86,.3c.14,0,.27,0,.37-.03,.1-.02,.19-.03,.27-.03,.07,0,.13,.02,.18,.06,.05,.05,.07,.14,.07,.26,0,.09-.02,.18-.06,.25-.04,.08-.1,.13-.2,.15-.09,.02-.22,.05-.37,.07-.15,.02-.29,.03-.41,.02Z"/><path class="b" d="M28.85,7.42c-.38-.06-.71-.18-.99-.36-.29-.18-.49-.39-.63-.64-.14-.25-.18-.51-.14-.79,.06-.36,.2-.62,.44-.79,.23-.17,.6-.26,1.1-.28,.5-.01,1.15,.04,1.97,.17l.53,.08-.09,.57-.51-.08c-.58-.09-1.04-.14-1.39-.14-.34,0-.59,.04-.74,.13-.15,.09-.25,.24-.28,.45-.04,.26,.03,.48,.21,.68s.45,.32,.82,.38c.29,.04,.55,.02,.79-.07,.24-.09,.44-.23,.6-.41,.16-.19,.26-.42,.3-.69l.18-1.14c.06-.39,.01-.68-.14-.89-.15-.2-.45-.34-.88-.4-.25-.04-.51-.05-.78-.03-.27,.02-.56,.07-.87,.15-.12,.03-.22,.03-.3,0-.08-.03-.14-.08-.18-.15-.04-.07-.06-.14-.05-.22,0-.08,.04-.15,.09-.21s.13-.11,.24-.12c.35-.09,.7-.14,1.04-.16,.34-.01,.65,0,.94,.05,.49,.08,.88,.21,1.18,.39,.29,.18,.5,.43,.62,.73,.11,.3,.14,.67,.07,1.11l-.41,2.61c-.02,.15-.08,.26-.18,.33s-.22,.09-.38,.06c-.15-.02-.26-.08-.34-.17-.07-.09-.1-.21-.08-.37l.11-.7,.1,.02c-.1,.23-.24,.43-.44,.58-.19,.15-.42,.26-.68,.31-.26,.06-.54,.06-.85,.01Z"/><path class="b" d="M33.39,8.33c-.17-.05-.29-.12-.35-.23s-.08-.23-.03-.38l1.13-3.92c.04-.15,.12-.24,.23-.29,.11-.05,.24-.05,.39,0,.16,.04,.26,.11,.33,.21,.06,.1,.07,.22,.03,.37l-.21,.74-.11-.03c.23-.35,.53-.58,.91-.68,.38-.11,.82-.1,1.32,.02,.12,.03,.21,.08,.26,.16,.06,.08,.07,.18,.04,.31-.03,.12-.09,.21-.18,.26s-.22,.06-.38,.03l-.2-.05c-.5-.1-.91-.07-1.24,.09s-.55,.43-.67,.84l-.65,2.25c-.04,.15-.12,.25-.22,.3-.11,.05-.24,.06-.4,0Z"/><path class="b" d="M39.35,3.9c-.19-.07-.33-.18-.4-.31-.08-.13-.09-.27-.03-.42,.06-.16,.16-.27,.31-.31,.14-.04,.31-.03,.5,.05,.21,.08,.35,.18,.42,.3,.07,.12,.08,.27,.02,.43-.06,.15-.15,.25-.29,.3-.14,.05-.31,.04-.52-.04Zm-2.14,5.66c-.15-.06-.25-.14-.31-.26-.05-.11-.06-.24,0-.38l1.41-3.73c.06-.15,.14-.25,.26-.29s.25-.04,.4,.02c.16,.06,.26,.14,.32,.25s.06,.24,0,.39l-1.41,3.73c-.05,.14-.14,.24-.25,.29-.11,.05-.25,.04-.42-.02Z"/><path class="b" d="M41.2,11.36c-.49-.25-.87-.56-1.14-.92-.27-.37-.42-.77-.44-1.21-.03-.44,.07-.89,.3-1.35,.18-.35,.39-.63,.64-.85,.25-.22,.53-.38,.84-.46,.31-.09,.64-.11,.99-.07,.35,.04,.71,.16,1.08,.35,.49,.25,.87,.56,1.14,.92,.27,.37,.42,.77,.45,1.2,.03,.44-.07,.88-.3,1.34-.17,.35-.39,.63-.64,.85-.25,.22-.54,.38-.85,.47-.31,.09-.64,.11-.99,.07-.35-.05-.71-.16-1.08-.35Zm.32-.64c.3,.15,.59,.22,.88,.21,.28-.01,.55-.11,.79-.29,.24-.18,.45-.44,.62-.79,.26-.52,.33-.99,.2-1.4-.13-.41-.42-.72-.87-.95-.29-.15-.58-.22-.86-.21-.28,.01-.55,.1-.79,.28-.24,.17-.45,.44-.63,.79-.26,.52-.33,.99-.2,1.4s.42,.73,.86,.95Z"/></svg>