<?xml version="1.0" encoding="UTF-8"?><svg id="a" xmlns="http://www.w3.org/2000/svg" viewBox="0 0 20.08 17.22"><defs><style>.b{fill:#4d434f;}</style></defs><path class="b" d="M12.59,9.56c-2.35-.98-4.4-.36-5.16,1.56-.72,1.82,.04,3.61,1.82,4.34,1.67,.68,4.3-.32,4.9-1.97,.51-1.41,.44-3.11-1.56-3.92Zm.6-1.61c2.66,1.37,3.31,2.58,2.86,5.21-.43,2.48-3.87,4.59-6.45,3.96-2.89-.7-4.44-3.29-3.51-6.1,.31-.92,1.02-1.7,1.62-2.66-.29-.56-.77-1.27-1.03-2.04-.25-.74-.3-1.55-.37-2.33-.15-1.75-2.11-2.8-3.78-2.65-.83,.08-1.65,.22-2.45,.33C-.19,.82,.31,.61,.78,.41c2.74-1.19,6.87,.29,7.06,3.83,.02,.34,.07,.67,.14,1.01,.31,1.53,.95,2.14,2.2,2.11,1.37-.03,2.53-1.03,2.68-2.37,.06-.55-.04-1.12-.08-1.69-.13-1.97,.76-3.04,2.71-3.07,1.24-.02,2.49,.15,3.72,.35,.33,.05,.59,.55,.88,.85-.36,.21-.71,.59-1.08,.61-.9,.04-1.81-.11-2.72-.12-1.57-.02-1.76,.19-1.69,1.73,.09,2.09,.02,2.31-1.41,4.29Z"/></svg>