<?xml version="1.0" encoding="UTF-8"?><svg id="a" xmlns="http://www.w3.org/2000/svg" viewBox="0 0 29.88 8.3"><defs><style>.b{fill:#4d434f;}</style></defs><path class="b" d="M5.36,7.73c-.17,.05-.31,.05-.42,0-.11-.05-.19-.15-.24-.3L2.99,1.84,.59,2.57c-.14,.04-.26,.04-.36,0-.1-.04-.17-.12-.21-.25-.04-.12-.03-.23,.04-.31,.06-.09,.16-.15,.3-.2L6.18,.04c.15-.05,.27-.05,.36,0,.1,.04,.16,.12,.2,.24,.04,.12,.03,.23-.03,.32-.06,.09-.16,.16-.3,.2l-2.4,.73,1.71,5.59c.04,.15,.04,.27-.02,.38s-.17,.18-.34,.24Z"/><path class="b" d="M10.14,6.68c-.38,.05-.73,.03-1.06-.06-.32-.09-.59-.24-.79-.44-.2-.2-.32-.44-.35-.72-.05-.36,.02-.65,.19-.88,.18-.23,.5-.43,.98-.58,.47-.15,1.12-.29,1.94-.39l.53-.07,.08,.57-.51,.07c-.58,.08-1.04,.16-1.37,.25-.33,.09-.56,.2-.68,.34-.12,.13-.17,.3-.14,.51,.04,.26,.17,.46,.4,.59,.23,.14,.53,.18,.89,.13,.29-.04,.53-.13,.74-.28,.2-.15,.36-.34,.46-.57,.1-.23,.13-.47,.1-.74l-.15-1.14c-.05-.39-.18-.66-.39-.81-.2-.15-.52-.2-.96-.14-.25,.03-.5,.1-.76,.19s-.52,.22-.79,.39c-.11,.06-.2,.09-.29,.08-.09,0-.16-.04-.22-.09-.06-.06-.09-.12-.11-.2-.01-.08,0-.15,.03-.23,.03-.08,.1-.14,.2-.19,.31-.19,.63-.34,.95-.44s.63-.18,.91-.22c.49-.07,.91-.05,1.24,.04,.34,.09,.6,.27,.8,.53s.32,.61,.38,1.04l.35,2.62c.02,.15,0,.27-.08,.36-.07,.09-.19,.15-.35,.17-.15,.02-.28,0-.37-.07-.1-.07-.16-.18-.18-.33l-.09-.7,.1-.02c-.03,.25-.11,.48-.26,.68-.14,.2-.33,.37-.56,.49-.23,.13-.51,.21-.81,.26Z"/><path class="b" d="M16.11,6.34c-.45-.02-.82-.11-1.12-.27-.3-.16-.51-.39-.64-.68-.13-.29-.19-.66-.17-1.09l.11-2.62c0-.15,.05-.27,.15-.34,.09-.07,.22-.11,.39-.1,.17,0,.3,.05,.38,.13,.09,.08,.13,.2,.12,.35l-.11,2.62c-.02,.41,.07,.72,.25,.93,.18,.2,.48,.32,.89,.33,.46,.02,.84-.1,1.13-.35,.3-.26,.46-.6,.47-1.04l.1-2.37c0-.15,.06-.27,.15-.34,.09-.07,.22-.11,.39-.1,.17,0,.3,.05,.39,.13s.13,.2,.12,.35l-.17,4.08c-.01,.31-.19,.46-.52,.45-.17,0-.29-.05-.38-.14-.08-.08-.12-.2-.12-.35l.03-.87,.14,.18c-.17,.38-.43,.67-.78,.85-.35,.19-.75,.28-1.21,.26Z"/><path class="b" d="M20.85,6.77c-.17-.03-.3-.1-.37-.19-.08-.09-.1-.22-.07-.37l.73-4.01c.03-.15,.09-.26,.2-.31,.1-.06,.24-.07,.39-.05,.16,.03,.27,.09,.34,.18,.07,.09,.1,.21,.07,.36l-.14,.76-.11-.02c.19-.37,.47-.63,.84-.77,.37-.14,.81-.18,1.31-.12,.12,.01,.21,.06,.28,.13,.06,.07,.09,.17,.07,.3-.02,.13-.07,.22-.16,.28-.09,.06-.21,.08-.37,.07l-.2-.03c-.51-.05-.91,.03-1.22,.21-.31,.19-.5,.49-.58,.9l-.42,2.3c-.03,.15-.09,.26-.19,.32-.1,.06-.23,.08-.4,.05Z"/><path class="b" d="M26.38,8.13c-.52-.17-.95-.41-1.27-.73-.32-.32-.53-.69-.63-1.12s-.07-.89,.09-1.38c.12-.37,.28-.68,.5-.94,.21-.26,.47-.46,.76-.59,.29-.14,.61-.21,.97-.22,.35-.01,.72,.05,1.12,.17,.53,.17,.95,.41,1.27,.73s.53,.69,.63,1.12,.07,.88-.09,1.37c-.12,.37-.28,.68-.5,.94-.22,.26-.47,.46-.76,.6-.29,.14-.62,.21-.97,.22-.35,.01-.73-.05-1.12-.17Zm.22-.69c.32,.1,.62,.12,.9,.07s.52-.19,.73-.41c.21-.21,.37-.51,.49-.88,.18-.56,.17-1.03-.02-1.41-.19-.38-.53-.65-1.01-.8-.31-.1-.61-.12-.89-.07-.28,.05-.52,.19-.74,.4-.21,.21-.38,.51-.5,.88-.18,.56-.17,1.03,.02,1.42,.19,.39,.53,.66,1,.81Z"/></svg>