<?xml version="1.0" encoding="UTF-8"?><svg id="a" xmlns="http://www.w3.org/2000/svg" viewBox="0 0 23.05 16.86"><defs><style>.b{fill:#4d434f;}</style></defs><path class="b" d="M.28,3.54C-.38,2.1,.15,.82,1.54,.27c.89-.36,1.88-.43,2.62,.26,.62,.59,1.04,1.4,1.53,2.09-.03,.03,.03,0,.04-.06,.36-1.46,1.42-1.85,2.77-1.87,.59,0,1.04,.18,1.32,.68,.41,.74,.79,1.5,1.21,2.3,.07-.31,.15-.59,.2-.87,.1-.6,.44-1.02,.93-1.34,.86-.57,1.83-.56,2.76-.32,.71,.18,1.11,.81,1.28,1.52,.19,.79,.34,1.59,.51,2.42,.4-.27,.74-.53,1.1-.74,.7-.42,1.43-.42,2.18-.1,.75,.32,1.23,.8,1.35,1.67,.2,1.45,.15,2.85-.82,4.03-.61,.73-1.24,1.46-1.96,2.08-.53,.46-.71,.84-.63,1.58,.13,1.12,.74,1.62,1.68,1.92,1.44,.46,2.52-.25,2.74-1.77,.05-.38,.1-.76,.15-1.13,.16,.02,.25,0,.27,.04,.55,1,.25,1.91-.36,2.75-.56,.77-1.25,1.2-2.29,1-1.46-.28-2.58-.96-3.15-2.39-.03-.09-.12-.15-.21-.28-1.16,.94-1.55,2.67-3.29,3.11,.06-.22,.05-.45,.16-.59,.95-1.22,1.93-2.42,2.88-3.65,.14-.18,.27-.47,.24-.68-.4-2.87-.83-5.74-1.26-8.61-.03-.2-.06-.39-.12-.58-.22-.71-.56-.96-1.3-.97-.36,0-.73,.02-1.08,.11-.72,.19-1.14,.7-1.11,1.55,.05,1.38,.14,2.76,.32,4.13,.2,1.5,.54,2.98,.8,4.48,.07,.39,.11,.79,.09,1.18-.01,.18-.16,.46-.32,.52-.31,.11-.47-.14-.54-.43-.06-.26-.13-.51-.18-.77-.32-1.62-.59-3.25-.97-4.85-.36-1.51-.83-2.98-1.27-4.47-.08-.28-.23-.55-.35-.82-.27-.62-.65-1.03-1.43-.92-.76,.11-1.35,.4-1.49,1.2-.14,.81-.34,1.64-.27,2.44,.19,2.13,.51,4.25,.77,6.38,.08,.65,.15,1.31,.19,1.97,.02,.3-.06,.67-.46,.6-.17-.03-.39-.34-.43-.55-.28-1.69-.51-3.39-.78-5.08-.27-1.73-.53-3.45-.82-5.18-.07-.42-.2-.84-.38-1.22-.43-.98-1.11-1.35-2.13-1.23-.99,.12-1.68,.78-1.85,1.78-.05,.31-.06,.63-.09,.95Zm17.28,7.95l.26,.07c.52-.49,1.06-.97,1.57-1.48,1.16-1.16,1.57-2.54,1.17-4.16-.1-.43-.3-.7-.66-.92-.77-.49-1.51-.39-2.22,.09-.64,.43-.81,1.07-.71,1.82,.12,.88,.2,1.77,.31,2.65,.08,.65,.19,1.29,.28,1.94Z"/></svg>