<?xml version="1.0" encoding="UTF-8"?><svg id="a" xmlns="http://www.w3.org/2000/svg" viewBox="0 0 28.91 8.58"><defs><style>.b{fill:#4d434f;}</style></defs><path class="b" d="M5.8,8.33c-.15,.05-.29,.06-.4,.03-.12-.03-.23-.09-.33-.2L.15,3.28C.05,3.18,0,3.08,0,2.99c0-.09,.03-.18,.1-.25,.07-.08,.16-.13,.27-.17,.15-.05,.28-.06,.37-.03,.09,.03,.19,.09,.29,.19L5.73,7.47l-.38,.13L6.25,.98c.02-.13,.06-.24,.12-.33,.06-.08,.16-.15,.31-.2,.12-.04,.22-.05,.31-.02,.09,.02,.16,.08,.21,.16,.05,.08,.06,.18,.05,.32l-.99,6.86c-.02,.15-.06,.26-.13,.35-.07,.09-.18,.16-.33,.21Z"/><path class="b" d="M10.04,1.06c-.2,.03-.37,.01-.5-.07-.13-.08-.21-.19-.24-.35-.03-.17,0-.31,.11-.42,.1-.11,.26-.18,.46-.21,.22-.04,.39-.02,.51,.05,.12,.07,.2,.19,.23,.36,.03,.16,0,.29-.1,.41-.09,.11-.25,.19-.47,.22Zm.96,5.97c-.16,.02-.29,0-.39-.07-.1-.07-.17-.18-.19-.33l-.63-3.94c-.03-.16,0-.29,.08-.38,.08-.1,.2-.16,.35-.18,.17-.03,.3,0,.4,.06,.1,.07,.17,.18,.19,.34l.63,3.94c.02,.15,0,.28-.07,.38-.07,.1-.2,.16-.37,.19Z"/><path class="b" d="M13.52,6.74c-.17,.01-.31-.02-.41-.09-.1-.07-.15-.19-.16-.34l-.26-4.07c0-.15,.03-.27,.12-.35,.09-.08,.21-.13,.37-.14,.16,0,.29,.02,.38,.09,.09,.07,.14,.18,.15,.34l.05,.77h-.11c.1-.4,.3-.72,.63-.94,.32-.23,.74-.37,1.25-.43,.12-.01,.22,0,.3,.06,.08,.05,.13,.14,.14,.28,.01,.12-.01,.23-.08,.31-.07,.08-.19,.13-.35,.16l-.21,.02c-.5,.08-.88,.25-1.13,.5-.26,.26-.37,.59-.34,1.01l.15,2.34c0,.15-.03,.27-.11,.36-.08,.09-.21,.13-.38,.14Z"/><path class="b" d="M19.21,8.56c-.41-.03-.81-.11-1.18-.22-.38-.11-.72-.26-1.02-.45-.1-.06-.16-.13-.19-.2-.03-.07-.03-.15,0-.22,.02-.07,.07-.13,.13-.19,.06-.05,.13-.08,.21-.09,.08-.01,.16,.01,.24,.06,.32,.19,.63,.33,.93,.42,.3,.08,.59,.14,.86,.16,.54,.04,.96-.04,1.25-.27,.29-.22,.46-.56,.49-1.03l.09-1.08h.1c-.14,.37-.4,.65-.79,.84-.39,.19-.82,.26-1.31,.22-.5-.04-.93-.18-1.29-.41-.36-.23-.62-.54-.8-.92-.18-.38-.24-.81-.21-1.29,.03-.37,.12-.69,.26-.98,.14-.29,.33-.52,.56-.72,.23-.19,.51-.33,.82-.43,.31-.09,.66-.12,1.04-.09,.5,.04,.92,.18,1.27,.43,.35,.25,.56,.56,.64,.95l-.14,.13,.07-.88c.01-.15,.07-.26,.17-.33,.1-.07,.23-.1,.4-.08,.16,.01,.28,.06,.37,.14,.08,.08,.12,.2,.11,.36l-.33,4.09c-.06,.75-.33,1.3-.79,1.64-.47,.34-1.12,.48-1.96,.41Zm.11-2.73c.34,.03,.64-.02,.9-.13,.26-.12,.46-.3,.62-.54,.15-.25,.25-.54,.27-.89,.04-.53-.07-.95-.34-1.28-.27-.33-.67-.51-1.17-.55-.34-.03-.64,.02-.9,.13-.26,.12-.47,.29-.62,.54s-.25,.54-.28,.89c-.04,.52,.07,.94,.35,1.27,.28,.33,.67,.52,1.18,.56Z"/><path class="b" d="M25.58,7.79c-.53-.13-.97-.35-1.31-.65s-.58-.66-.7-1.08c-.12-.42-.12-.88,0-1.38,.09-.38,.24-.7,.44-.97,.2-.27,.44-.48,.72-.64,.28-.16,.6-.25,.95-.28,.35-.03,.73,0,1.13,.1,.53,.13,.97,.35,1.31,.65,.34,.3,.58,.66,.7,1.08,.12,.42,.12,.88,0,1.38-.09,.38-.24,.7-.44,.97s-.44,.49-.72,.64c-.28,.16-.6,.25-.95,.28-.35,.03-.73,0-1.13-.1Zm.18-.7c.33,.08,.63,.08,.9,0,.27-.08,.51-.23,.7-.45,.19-.23,.34-.53,.43-.91,.14-.57,.11-1.04-.11-1.41-.21-.37-.57-.62-1.06-.74-.32-.08-.61-.08-.89-.01s-.51,.22-.71,.45-.34,.53-.44,.91c-.14,.57-.11,1.04,.11,1.41,.22,.37,.57,.62,1.05,.74Z"/></svg>