<svg width="14" height="19" viewBox="0 0 14 19" fill="none" xmlns="http://www.w3.org/2000/svg">
<path d="M7.02994 18.83C6.88994 17.69 6.74994 16.54 6.59994 15.4C6.10994 11.78 5.23994 10.88 1.37994 10.08C1.03994 10.01 0.439941 10.23 0.439941 9.71002C0.439941 9.36002 1.01994 9.41003 1.35994 9.34003C2.06994 9.21003 2.76994 9.01 3.43994 8.75C5.02994 8.12 6.05994 7.03 6.39994 5.31C6.65994 4.02 6.80994 2.72999 6.92994 1.42999C6.95994 1.14999 6.82994 0.81001 7.23994 0.51001C7.37994 1.67001 7.50994 2.76003 7.63994 3.84003C8.09994 7.63003 9.34994 8.92 13.1299 9.5C13.2799 9.52 13.4699 9.46997 13.5799 9.71997C13.3199 10.01 12.9199 9.94001 12.5999 10.01C9.18994 10.72 7.92994 12.15 7.62994 15.62C7.53994 16.69 7.39994 17.76 7.27994 18.83H7.02994Z" fill="#E5CB77"/>
</svg>
