<svg width="37" height="36" viewBox="0 0 37 36" fill="none" xmlns="http://www.w3.org/2000/svg">
<path d="M36.38 18.65C36.45 26.77 29.94 35.43 18.27 35.72C8.77999 35.95 0.359985 27.57 0.359985 18.12C0.359985 8.74005 7.76999 1.06004 18.13 0.930045C28.33 0.800045 36.37 8.72005 36.39 18.65H36.38Z" fill="#4B454F"/>
<path d="M14.54 1.44003C22.27 -0.0599682 29.59 2.93003 33.58 8.98003C37.63 15.14 37.6101 22.27 33.5201 28.25C29.7401 33.79 22.06 36.91 14.92 35.42C23.96 32.54 29.24 27.07 28.89 17.71C28.62 10.36 24.68 6.09003 14.54 1.43003V1.44003Z" fill="#E3C57D"/>
<path d="M26.6599 18.02C26.5099 17.93 26.3599 17.84 26.2099 17.76C26.1699 17.74 26.1199 17.7 26.0799 17.75C26.0299 17.8 26.0599 17.85 26.0799 17.89C26.1399 17.99 26.1999 18.08 26.2599 18.17C26.3899 18.39 26.3799 18.41 26.1399 18.47C25.9999 18.5 25.8499 18.53 25.7099 18.57C25.6599 18.58 25.5699 18.57 25.5699 18.66C25.5699 18.74 25.6499 18.76 25.7199 18.77C25.9099 18.81 26.0999 18.85 26.2899 18.88C26.4399 18.9 26.4099 18.95 26.3499 19.04C26.2499 19.18 26.1499 19.33 26.0599 19.47C26.0299 19.52 25.9999 19.57 26.0499 19.62C26.1099 19.68 26.1499 19.62 26.1999 19.6C26.3699 19.49 26.5399 19.38 26.7199 19.26V19.34C26.7799 19.73 26.8299 20.13 26.8899 20.52C26.8899 20.58 26.8999 20.66 26.9999 20.67C27.0899 20.67 27.1099 20.6 27.1199 20.53C27.1299 20.49 27.1299 20.44 27.1399 20.4C27.1899 20.02 27.2499 19.65 27.3099 19.25C27.4499 19.35 27.5599 19.44 27.6899 19.52C27.7599 19.57 27.8499 19.67 27.9299 19.59C28.0099 19.51 27.9099 19.43 27.8599 19.35C27.8199 19.28 27.7599 19.21 27.7199 19.13C27.5999 18.95 27.6099 18.93 27.8199 18.89C27.9899 18.85 28.1599 18.82 28.3199 18.75C28.3799 18.73 28.4499 18.71 28.4399 18.63C28.4399 18.55 28.3599 18.55 28.2999 18.53C28.0699 18.48 27.8299 18.43 27.5899 18.38C27.6699 18.19 27.7899 18.05 27.8799 17.89C27.9099 17.84 27.9499 17.79 27.8999 17.74C27.8499 17.69 27.7899 17.74 27.7499 17.75C27.5999 17.83 27.4599 17.94 27.2899 18C27.2299 17.81 27.2399 17.61 27.2099 17.42C27.1699 17.21 27.1399 16.99 27.0999 16.78C27.0999 16.72 27.0699 16.67 26.9999 16.67C26.9399 16.67 26.9199 16.72 26.9099 16.77C26.8999 16.81 26.8899 16.85 26.8799 16.9C26.8099 17.27 26.7499 17.63 26.6799 18.01L26.6599 18.02Z" fill="#E8C066"/>
<path d="M19.01 4.55004C19.17 4.64004 19.21 4.85004 19.11 5.02004C19.01 5.19004 18.82 5.26004 18.67 5.17004C18.51 5.07004 18.47 4.88004 18.57 4.70004C18.67 4.53004 18.87 4.46004 19.01 4.55004Z" fill="#DFC078"/>
<path d="M22.94 7.54007C23.06 7.67007 23.04 7.89007 22.89 8.02007C22.74 8.15007 22.54 8.16007 22.43 8.02007C22.31 7.88007 22.33 7.68007 22.48 7.54007C22.62 7.41007 22.83 7.41007 22.94 7.53007V7.54007Z" fill="#DFC078"/>
<path d="M25.7499 11.6C25.8199 11.76 25.7399 11.96 25.5499 12.04C25.3699 12.12 25.1699 12.06 25.1099 11.91C25.0399 11.74 25.1099 11.55 25.3099 11.47C25.4899 11.39 25.6899 11.45 25.7599 11.6H25.7499Z" fill="#DFC078"/>
<path d="M25.4299 25.9201C25.3399 26.0801 25.1299 26.1201 24.9599 26.0201C24.7899 25.9201 24.7199 25.7301 24.8099 25.5801C24.9099 25.4201 25.0999 25.3801 25.2799 25.4801C25.4499 25.5801 25.5199 25.7801 25.4299 25.9201Z" fill="#DFC078"/>
<path d="M22.4399 29.85C22.3099 29.97 22.0899 29.95 21.9599 29.8C21.8299 29.65 21.8199 29.45 21.9599 29.34C22.0999 29.22 22.2999 29.24 22.4399 29.39C22.5699 29.53 22.5699 29.74 22.4499 29.85H22.4399Z" fill="#DFC078"/>
<path d="M18.38 32.6601C18.22 32.7301 18.02 32.6501 17.94 32.4601C17.86 32.2801 17.92 32.0801 18.07 32.0201C18.24 31.9501 18.43 32.0201 18.51 32.2201C18.59 32.4001 18.53 32.6001 18.38 32.6701V32.6601Z" fill="#DFC078"/>
</svg>
