<svg width="38" height="36" viewBox="0 0 38 36" fill="none" xmlns="http://www.w3.org/2000/svg">
<path d="M1.13013 18.07C1.06013 9.94999 7.57011 1.28999 19.2401 0.999987C28.7301 0.769987 37.1501 9.14999 37.1501 18.6C37.1501 27.98 29.7401 35.66 19.3801 35.79C9.18013 35.92 1.14012 28 1.12012 18.07H1.13013Z" fill="#4B454F"/>
<path d="M22.9701 35.28C15.2401 36.78 7.92005 33.79 3.93005 27.74C-0.119954 21.58 -0.0999568 14.45 3.99004 8.46996C7.77004 2.92996 15.4501 -0.190037 22.59 1.29996C13.55 4.17996 8.27005 9.64996 8.62005 19.01C8.89005 26.36 12.8301 30.63 22.9701 35.29V35.28Z" fill="#E3C57D"/>
<path d="M10.8501 18.6999C11.0001 18.7899 11.15 18.8799 11.3 18.9599C11.34 18.9799 11.39 19.0199 11.43 18.9699C11.48 18.9199 11.45 18.8699 11.43 18.8299C11.37 18.7299 11.31 18.6399 11.25 18.5499C11.12 18.3299 11.13 18.3099 11.37 18.2499C11.51 18.2199 11.66 18.1899 11.8 18.1499C11.85 18.1399 11.94 18.1499 11.94 18.0599C11.94 17.9799 11.8601 17.9599 11.7901 17.9499C11.6001 17.9099 11.41 17.8699 11.22 17.8399C11.07 17.8199 11.1 17.7699 11.16 17.6799C11.26 17.5399 11.3601 17.3899 11.4501 17.2499C11.4801 17.1999 11.51 17.1499 11.46 17.0999C11.4 17.0399 11.36 17.0999 11.31 17.1199C11.14 17.2299 10.9701 17.3399 10.7901 17.4599V17.3799C10.7301 16.9899 10.68 16.5899 10.62 16.1999C10.62 16.1399 10.6101 16.0599 10.5101 16.0499C10.4201 16.0499 10.4001 16.1199 10.3901 16.1899C10.3801 16.2299 10.38 16.2799 10.37 16.3199C10.32 16.6999 10.2601 17.0699 10.2001 17.4699C10.0601 17.3699 9.95005 17.2799 9.82005 17.1999C9.75005 17.1499 9.66003 17.0499 9.58003 17.1299C9.50003 17.2099 9.60004 17.2899 9.65004 17.3699C9.69004 17.4399 9.75005 17.5099 9.79005 17.5899C9.91005 17.7699 9.90005 17.7899 9.69005 17.8299C9.52005 17.8699 9.35005 17.8999 9.19005 17.9699C9.13005 17.9899 9.06005 18.0099 9.07005 18.0899C9.07005 18.1699 9.15004 18.1699 9.21004 18.1899C9.44004 18.2399 9.68006 18.2899 9.92006 18.3399C9.84006 18.5299 9.72005 18.6699 9.63005 18.8299C9.60005 18.8799 9.56003 18.9299 9.61003 18.9799C9.66003 19.0299 9.72005 18.9799 9.76006 18.9699C9.91006 18.8899 10.05 18.7799 10.22 18.7199C10.28 18.9099 10.27 19.1099 10.3 19.2999C10.34 19.5099 10.37 19.7299 10.41 19.9399C10.41 19.9999 10.4401 20.0499 10.5101 20.0499C10.5701 20.0499 10.5901 19.9999 10.6001 19.9499C10.6101 19.9099 10.6201 19.8699 10.6301 19.8199C10.7001 19.4499 10.76 19.0899 10.83 18.7099L10.8501 18.6999Z" fill="#E8C066"/>
<path d="M18.5001 32.1599C18.3401 32.0699 18.3001 31.8599 18.4001 31.6899C18.5001 31.5199 18.6901 31.4499 18.8401 31.5399C19.0001 31.6399 19.0401 31.8299 18.9401 32.0099C18.8401 32.1799 18.6401 32.2499 18.5001 32.1599Z" fill="#DFC078"/>
<path d="M14.5701 29.1699C14.4501 29.0399 14.4701 28.8199 14.6201 28.6899C14.7701 28.5599 14.9701 28.5499 15.0801 28.6899C15.2001 28.8299 15.1801 29.0299 15.0301 29.1699C14.8901 29.2999 14.6801 29.2999 14.5701 29.1799V29.1699Z" fill="#DFC078"/>
<path d="M11.7601 25.12C11.6901 24.96 11.7701 24.76 11.9601 24.68C12.1401 24.6 12.3401 24.66 12.4001 24.81C12.4701 24.98 12.4001 25.17 12.2001 25.25C12.0201 25.33 11.8201 25.27 11.7501 25.12H11.7601Z" fill="#DFC078"/>
<path d="M12.0801 10.7899C12.1701 10.6299 12.3801 10.5899 12.5501 10.6899C12.7201 10.7899 12.7901 10.9799 12.7001 11.1299C12.6001 11.2899 12.4101 11.3299 12.2301 11.2299C12.0601 11.1299 11.9901 10.9299 12.0801 10.7899Z" fill="#DFC078"/>
<path d="M15.0701 6.86994C15.2001 6.74994 15.4201 6.76994 15.5501 6.91994C15.6801 7.06994 15.6901 7.26994 15.5501 7.37994C15.4101 7.49994 15.2101 7.47994 15.0701 7.32994C14.9401 7.18994 14.9401 6.97994 15.0601 6.86994H15.0701Z" fill="#DFC078"/>
<path d="M19.1302 4.04994C19.2902 3.97994 19.4902 4.05993 19.5702 4.24993C19.6502 4.42993 19.5902 4.62994 19.4402 4.68994C19.2702 4.75994 19.0802 4.68993 19.0002 4.48993C18.9202 4.30993 18.9802 4.10993 19.1302 4.03993V4.04994Z" fill="#DFC078"/>
</svg>
