<svg width="11" height="15" viewBox="0 0 11 15" fill="none" xmlns="http://www.w3.org/2000/svg">
<path d="M6.22998 10.1C6.75998 10.41 7.27998 10.72 7.79998 11.01C7.93998 11.09 8.09998 11.22 8.26998 11.05C8.42998 10.89 8.32998 10.72 8.24998 10.57C8.05998 10.23 7.82998 9.90999 7.62998 9.56999C7.16998 8.78999 7.18998 8.73998 8.04998 8.53998C8.55998 8.41998 9.05998 8.31999 9.56998 8.18999C9.75998 8.13999 10.07 8.18998 10.07 7.88998C10.07 7.58998 9.77998 7.54998 9.54998 7.49998C8.88998 7.35998 8.23998 7.20998 7.56998 7.11998C7.05998 7.04998 7.13998 6.85999 7.35998 6.54999C7.70998 6.05999 8.04998 5.54998 8.37998 5.03998C8.47998 4.87998 8.60998 4.69998 8.42998 4.50998C8.22998 4.28998 8.05998 4.48999 7.91998 4.57999C7.31998 4.95999 6.72998 5.35998 6.08998 5.78998L6.04998 5.49998C5.86998 4.12998 5.69998 2.74999 5.50998 1.37999C5.47998 1.15999 5.45998 0.869985 5.12998 0.859985C4.80998 0.859985 4.75998 1.10998 4.69998 1.33998C4.65998 1.48998 4.64998 1.63998 4.62998 1.78998C4.43998 3.10998 4.24998 4.41999 4.04998 5.79999C3.56998 5.45999 3.16998 5.13998 2.72998 4.86998C2.46998 4.70998 2.16998 4.33999 1.87998 4.60999C1.57998 4.88999 1.96998 5.17998 2.11998 5.44998C2.26998 5.70998 2.45998 5.95999 2.61998 6.20999C3.02998 6.82999 3.00998 6.89998 2.25998 7.05998C1.66998 7.18998 1.06998 7.30999 0.509981 7.54999C0.319981 7.63999 0.0599821 7.67999 0.0699821 7.95999C0.0899821 8.24999 0.339982 8.25999 0.549982 8.29999C1.36998 8.46999 2.18998 8.63998 3.02998 8.80998C2.75998 9.47998 2.32998 9.97999 1.99998 10.54C1.89998 10.71 1.76998 10.9 1.92998 11.07C2.09998 11.26 2.29998 11.1 2.45998 11.02C2.99998 10.76 3.45998 10.34 4.04998 10.15C4.25998 10.82 4.21998 11.5 4.33998 12.16C4.46998 12.91 4.58998 13.66 4.70998 14.4C4.73998 14.61 4.82998 14.78 5.06998 14.78C5.27998 14.78 5.35998 14.61 5.39998 14.43C5.43998 14.28 5.47998 14.14 5.50998 13.99C5.73998 12.71 5.96998 11.44 6.19998 10.09L6.22998 10.1Z" fill="#E8C066"/>
</svg>
